<svg xmlns="http://www.w3.org/2000/svg" width="524" height="377" fill="none" viewBox="0 0 524 377">
  <path fill="#000" stroke="#000" stroke-miterlimit="10" stroke-width=".344" d="M76.356 314.578c0 .069-.893.31-2.543.653-.413.103-.894.172-1.376.275-.515.103-1.065.206-1.65.31-1.203.206-2.543.446-4.056.653-.756.103-1.547.206-2.372.343-.825.104-1.684.207-2.578.31-1.787.206-3.678.378-5.672.55a189.89 189.89 0 0 1-13.062.55 217.5 217.5 0 0 1-13.063-.413c-1.993-.171-3.918-.309-5.672-.515-.893-.103-1.753-.172-2.578-.275-.825-.103-1.615-.207-2.372-.31-1.512-.172-2.853-.412-4.056-.618-.584-.103-1.134-.207-1.65-.275-.515-.104-.962-.207-1.375-.275-1.65-.344-2.578-.55-2.578-.619 0-.069.963 0 2.647.206.412.069.894.103 1.41.172.515.069 1.065.103 1.65.172 1.203.137 2.543.309 4.056.447.756.069 1.546.172 2.371.24.826.069 1.685.138 2.579.207 1.787.171 3.678.275 5.671.412a253.1 253.1 0 0 0 12.994.344 213.48 213.48 0 0 0 12.994-.481c1.994-.138 3.884-.275 5.672-.447a55.518 55.518 0 0 0 2.578-.241c.825-.103 1.616-.172 2.372-.275 1.512-.137 2.853-.344 4.056-.481a71.547 71.547 0 0 0 3.06-.413c1.58-.206 2.543-.309 2.543-.206Zm-54.278 11.481c0 .138-1.134.241-2.922.035-1.787-.172-4.262-.653-6.875-1.582-.378-.137-.722-.275-1.065-.412l-.516-.206c-.275-.103-.55-.241-.825-.344 0-.241-.034-.481-.034-.722v-1.237c0-.516 0-.997.034-1.479a22.35 22.35 0 0 1 .206-2.44c.172-1.375.378-2.166.516-2.166.137 0 .172.825.172 2.2 0 .688.034 1.478.034 2.406 0 .447.034.929.069 1.444 0 .241.034.516.034.756 0 .104 0 .241.035.344v.103l.068.035.104.034.515.206c.344.138.688.241 1.031.378 5.053 1.857 9.454 2.304 9.42 2.647Z"/>
  <path fill="#000" stroke="#000" stroke-miterlimit="10" stroke-width=".344" d="M24.175 355.072c-.137.034-.86-1.581-1.822-4.297a183.6 183.6 0 0 1-3.403-10.725c-1.203-4.228-2.166-8.078-2.75-10.897-.619-2.819-.86-4.572-.722-4.606.31-.069 2.166 6.772 4.572 15.194 2.372 8.421 4.434 15.228 4.125 15.331Zm41.56-28.428c0-.172.927-.344 2.406-.653.721-.172 1.615-.379 2.578-.654.481-.137.962-.309 1.478-.481.24-.103.516-.172.79-.275.104-.034.241-.103.344-.137l.138-.069c.069-.481.137-.963.172-1.409.068-.55.137-1.066.24-1.582.138-.997.31-1.925.447-2.681.275-1.512.55-2.441.688-2.441.137 0 .171.997.103 2.51a51.428 51.428 0 0 1-.207 2.715c-.034.516-.103 1.032-.171 1.582a44.66 44.66 0 0 1-.241 1.993v.069c-.24.103-.447.172-.653.275l-.275.103-.206.069a7.82 7.82 0 0 1-.825.275c-.55.172-1.066.309-1.582.447-.996.241-1.925.378-2.715.447-1.513.137-2.475.034-2.51-.103Zm-.688 27.087c-.31-.069.687-5.809 1.787-12.89 1.135-7.082 1.96-12.857 2.27-12.822.308.034-.035 5.878-1.17 12.993-1.1 7.116-2.578 12.754-2.887 12.719Zm-2.303 2.406c.034.138-1.89.997-5.19 1.96a58.67 58.67 0 0 1-13.27 2.097c-5.259.24-10.003-.275-13.371-.997-1.685-.378-3.026-.894-3.885-1.341-.86-.447-1.272-.825-1.237-.893.034-.069.515.171 1.409.481.894.309 2.2.722 3.85.962 3.334.481 8.044.86 13.2.653 5.156-.206 9.797-.997 13.097-1.718 3.3-.757 5.328-1.375 5.397-1.204Zm-22.447-39.978s-.103-.068-.31-.275a8.078 8.078 0 0 1-.687-.962c-.55-.894-1.134-2.406-1.375-4.4-.137-.997-.206-2.097-.275-3.3-.069-1.203-.103-2.51-.24-3.885-.138-1.375-.379-2.853-.963-4.296-.585-1.444-1.547-2.785-2.613-4.194-1.065-1.41-2.268-2.888-3.025-4.778-.756-1.891-.859-3.953-1.34-5.913-.24-.997-.619-1.925-1.066-2.887-.275-.447-.481-.928-.79-1.375a7.78 7.78 0 0 0-.447-.688c-.172-.206-.31-.447-.482-.653-1.306-1.753-2.887-3.334-4.537-5.019-1.65-1.65-3.369-3.368-4.847-5.397-1.478-2.028-2.647-4.296-3.85-6.496-1.203-2.235-2.475-4.469-4.228-6.325-.894-.894-1.89-1.685-3.025-2.235a9.445 9.445 0 0 0-.86-.378c-.274-.103-.584-.206-.859-.241-.584-.103-1.1-.034-1.478.275-.413.31-.688.825-.86 1.41-.206.584-.274 1.237-.377 1.856a21.004 21.004 0 0 0-.172 3.884c.103 2.579.618 5.088 1.547 7.391.893 2.303 2.2 4.434 3.54 6.497 1.306 2.062 2.647 4.091 3.644 6.291.481 1.1.894 2.234 1.134 3.368.103.585.207 1.169.275 1.753.069.585.069 1.135.103 1.719.035 1.135.035 2.2.138 3.231.103 1.032.31 2.029.79 2.888.413.894 1.032 1.684 1.685 2.372.687.722 1.41 1.375 2.131 1.994 1.444 1.237 2.922 2.475 4.022 3.953.55.756.997 1.547 1.272 2.372.275.859.378 1.684.515 2.475.104.79.207 1.546.379 2.234.206.687.48 1.341.825 1.925a9.065 9.065 0 0 0 2.543 2.784c.482.344.963.619 1.479.825.48.207.962.344 1.443.516.963.275 1.788.55 2.51.859.722.31 1.271.722 1.615 1.135.344.412.447.859.482 1.134 0 .275-.035.413-.035.413-.034 0-.034-.138-.069-.379a2.446 2.446 0 0 0-.55-.996c-.343-.379-.893-.688-1.58-.963-.688-.275-1.548-.516-2.51-.756-.963-.241-2.063-.585-3.094-1.306a9.35 9.35 0 0 1-2.784-2.888 9.414 9.414 0 0 1-.928-2.062c-.241-.757-.344-1.547-.447-2.338-.104-.791-.241-1.581-.516-2.337-.275-.757-.688-1.479-1.203-2.166-1.031-1.341-2.475-2.509-3.953-3.747a24.06 24.06 0 0 1-2.2-2.028c-.722-.756-1.375-1.616-1.857-2.613-.515-.996-.756-2.096-.893-3.196-.138-1.1-.138-2.2-.172-3.3-.034-.55-.034-1.1-.103-1.65-.035-.55-.172-1.066-.275-1.616a15.725 15.725 0 0 0-1.1-3.163c-.963-2.096-2.269-4.09-3.575-6.153-1.34-2.062-2.716-4.228-3.644-6.668a23.562 23.562 0 0 1-1.616-7.769c-.068-1.341 0-2.716.172-4.056.069-.344.103-.688.172-1.032.069-.343.138-.687.275-1.031.206-.687.585-1.444 1.272-1.959a2.557 2.557 0 0 1 1.169-.516 3.52 3.52 0 0 1 1.203 0 9.73 9.73 0 0 1 1.066.275c.343.138.653.275.962.413 1.272.618 2.372 1.478 3.334 2.475.963.996 1.72 2.096 2.441 3.196.722 1.1 1.34 2.235 1.96 3.369 1.202 2.235 2.337 4.469 3.746 6.394 1.41 1.925 3.094 3.644 4.744 5.294 1.65 1.684 3.266 3.334 4.606 5.156.172.241.344.447.482.687.137.241.309.482.446.722.31.447.55.963.825 1.444.482.997.86 2.028 1.1 3.094.482 2.097.585 4.09 1.272 5.844.653 1.718 1.788 3.196 2.853 4.64 1.066 1.41 2.063 2.853 2.647 4.4.585 1.547.79 3.094.928 4.503.103 1.41.103 2.75.138 3.953.034 1.204.069 2.304.172 3.266.172 1.959.687 3.403 1.134 4.331.275.894.653 1.341.619 1.375Z"/>
  <path fill="#000" stroke="#000" stroke-miterlimit="10" stroke-width=".344" d="M42.566 306.947c-.035 0 .068-.481.309-1.375.24-.894.584-2.2 1.066-3.885.962-3.368 2.406-8.25 4.193-14.265.894-2.991 1.891-6.291 2.922-9.831.516-1.753 1.066-3.575 1.41-5.466.172-.963.309-1.925.378-2.888.069-.996.034-1.993-.035-2.99-.137-2.028-.55-4.125-.825-6.291-.137-1.1-.275-2.2-.309-3.334a14.326 14.326 0 0 1 0-1.719c0-.584.069-1.134.138-1.719.24-2.303.79-4.537 1.306-6.806.515-2.269 1.065-4.537 1.272-6.875a19.525 19.525 0 0 0 0-3.472c-.103-1.134-.241-2.303-.894-2.922-.31-.309-.79-.515-1.272-.618-.481-.104-.997-.069-1.513 0-.515.103-.996.24-1.478.481-.48.24-.928.515-1.306.859-.825.653-1.512 1.478-2.062 2.372-.585.894-.997 1.856-1.375 2.853-.722 1.994-1.17 4.091-1.891 6.085-.344.996-.79 1.959-1.272 2.887a46.906 46.906 0 0 1-1.616 2.578c-1.1 1.616-2.234 3.163-3.025 4.778-.825 1.582-1.203 3.3-1.478 4.985-.275 1.684-.447 3.334-.79 4.881-.344 1.581-.894 2.991-1.41 4.297a175.318 175.318 0 0 0-1.512 3.678c-.447 1.169-.825 2.234-1.066 3.266-.24 1.031-.378 1.993-.378 2.853-.069 1.718.275 3.059.619 3.884.344.859.619 1.238.584 1.272 0 0-.103-.069-.24-.275-.07-.103-.172-.206-.241-.378a3.968 3.968 0 0 1-.31-.55c-.412-.825-.859-2.2-.859-3.988 0-.893.103-1.89.31-2.956.206-1.066.55-2.2.997-3.369.412-1.168.962-2.406 1.443-3.712.516-1.306.997-2.716 1.306-4.194.31-1.512.447-3.128.722-4.847.138-.859.275-1.719.516-2.612.24-.894.55-1.788.962-2.613 1.65-3.437 4.538-6.29 5.776-10.14.687-1.925 1.1-3.988 1.856-6.085.722-2.097 1.89-4.194 3.747-5.74a7.906 7.906 0 0 1 1.547-.997c.55-.275 1.168-.447 1.787-.585.619-.103 1.272-.137 1.925 0 .653.138 1.306.413 1.822.894.55.481.825 1.169.962 1.788.172.618.207 1.237.275 1.821a21.918 21.918 0 0 1 0 3.679c-.206 2.44-.756 4.778-1.306 7.046-.516 2.269-1.066 4.504-1.306 6.704-.585 4.4.687 8.628.962 12.821.07 1.066.104 2.097 0 3.129-.068 1.031-.24 2.028-.412 3.025-.378 1.959-.963 3.815-1.513 5.568-1.1 3.507-2.13 6.807-3.059 9.797a4560.36 4560.36 0 0 1-4.503 14.163c-.55 1.684-.963 2.956-1.272 3.815-.378.791-.55 1.238-.584 1.238Z"/>
  <path fill="#000" stroke="#000" stroke-miterlimit="10" stroke-width=".344" d="M51.744 317.225c-.035 0 0-.137.069-.344.034-.103.068-.24.137-.412s.172-.344.275-.55c.413-.825 1.34-1.856 2.716-2.888.687-.515 1.478-1.065 2.303-1.684s1.718-1.306 2.475-2.2c.79-.859 1.34-2.028 1.787-3.3.447-1.272.825-2.681 1.375-4.159.138-.379.31-.722.481-1.1.172-.379.379-.722.585-1.066.412-.688.894-1.409 1.41-2.063 1.03-1.34 2.2-2.612 3.334-3.987s2.234-2.819 2.99-4.538c.79-1.684 1.238-3.575 1.582-5.534.343-1.959.55-4.022.928-6.119.171-1.065.412-2.131.721-3.162.07-.275.172-.516.241-.791.103-.275.172-.515.275-.79.172-.516.413-1.032.653-1.547.481-.997.963-1.994 1.41-2.991.412-.997.756-2.028.893-3.094.138-.997-.137-2.062-.618-2.99-.516-.894-1.272-1.685-2.2-1.925-.447-.138-.928-.069-1.41.068a4.133 4.133 0 0 0-1.272.791c-.79.688-1.512 1.616-2.268 2.441a80.513 80.513 0 0 0-4.125 5.225c-1.307 1.753-2.475 3.54-3.575 5.328a85.153 85.153 0 0 0-3.06 5.362c-1.856 3.575-3.334 7.082-4.572 10.45-.618 1.685-1.203 3.335-1.993 4.847a14.709 14.709 0 0 1-1.307 2.131 16.181 16.181 0 0 1-1.58 1.822c-1.1 1.1-2.2 2.063-3.163 2.991-.963.962-1.822 1.89-2.578 2.853a26.937 26.937 0 0 0-3.197 5.259c-.688 1.547-1.135 2.785-1.375 3.644-.275.86-.379 1.306-.413 1.306-.034 0 0-.481.206-1.375a24.82 24.82 0 0 1 1.203-3.781 25.408 25.408 0 0 1 3.094-5.465 24.953 24.953 0 0 1 2.578-2.991c.963-.997 2.063-1.959 3.094-3.059a18.085 18.085 0 0 0 1.478-1.754c.447-.618.86-1.306 1.238-2.028.722-1.443 1.306-3.059 1.89-4.778 1.17-3.403 2.682-6.978 4.503-10.587.929-1.822 1.96-3.61 3.06-5.432a74.63 74.63 0 0 1 3.61-5.431c1.305-1.787 2.68-3.575 4.193-5.294a43.46 43.46 0 0 0 1.134-1.306 14.51 14.51 0 0 1 1.238-1.272c.481-.412.997-.79 1.65-.997.653-.206 1.375-.275 2.028-.103.688.172 1.272.55 1.753.963a6.311 6.311 0 0 1 1.822 3.265c.138.619.172 1.272.103 1.857-.137 1.203-.516 2.337-.962 3.403-.447 1.065-.963 2.028-1.444 3.025-.928 1.925-1.478 3.987-1.822 6.05-.378 2.062-.619 4.125-.963 6.119-.378 1.993-.859 3.987-1.718 5.775-.825 1.787-1.994 3.334-3.163 4.709-1.168 1.375-2.372 2.647-3.368 3.919a22.635 22.635 0 0 0-1.376 1.959c-.206.344-.412.653-.55.997-.171.344-.343.687-.48 1.031-.55 1.375-.963 2.784-1.444 4.091-.482 1.306-1.135 2.509-1.994 3.437-.825.928-1.788 1.616-2.647 2.2-.86.585-1.65 1.1-2.372 1.581-1.375.963-2.337 1.891-2.784 2.647-.104.207-.207.344-.31.516-.103.138-.137.275-.172.378-.172.344-.24.447-.24.447Zm-18.94-24.269c-.138.069-.791-.859-1.342-2.578a19.383 19.383 0 0 1-.687-3.059 255.157 255.157 0 0 1-.516-3.747c-.137-1.341-.309-2.578-.378-3.781a15.31 15.31 0 0 1 .138-3.163c.275-1.787.756-2.784.894-2.75.171.034-.035 1.1-.104 2.819a18.22 18.22 0 0 0 .104 2.991c.103 1.134.309 2.406.446 3.712.138 1.341.275 2.578.413 3.747.137 1.134.275 2.166.447 2.991.343 1.753.756 2.749.584 2.818Z"/>
  <path fill="#000" stroke="#000" stroke-miterlimit="10" stroke-width=".344" d="M39.128 313.925c-.275-.103 1.478-5.706 3.953-12.513 2.475-6.806 4.71-12.237 5.019-12.134.275.103-1.478 5.706-3.953 12.513-2.51 6.806-4.744 12.237-5.019 12.134Z"/>
  <path fill="#000" stroke="#000" stroke-miterlimit="10" stroke-width=".344" d="M40.71 316.744c-.104.103-.379.034-.688-.241a2.538 2.538 0 0 1-.756-1.306c-.172-.585-.138-1.134 0-1.513.103-.378.309-.584.447-.55.309.069.378.894.618 1.788.275.859.619 1.615.378 1.822Zm4.33.137c-.034.035-.343-.756-.102-2.2.137-.722.412-1.547.859-2.44.447-.894 1.1-1.857 1.856-2.853 3.025-3.919 7.253-9.316 11.447-15.572a152.975 152.975 0 0 0 5.603-9.007c1.616-2.818 2.922-5.465 3.988-7.7 2.062-4.468 3.093-7.356 3.265-7.321.069.034-.103.756-.515 2.096-.172.688-.482 1.478-.825 2.407-.31.928-.757 1.959-1.204 3.128a83.16 83.16 0 0 1-3.78 7.872 116.844 116.844 0 0 1-5.57 9.143c-4.228 6.291-8.593 11.653-11.756 15.435-.79.962-1.444 1.822-1.925 2.647-.481.825-.825 1.581-.997 2.234-.378 1.341-.24 2.131-.343 2.131Zm-10.312-5.809c-.172.034-.722-2.131-2.337-5.363-.791-1.615-1.857-3.471-3.094-5.5a590.655 590.655 0 0 1-4.09-6.634c-2.888-4.709-5.466-9.006-7.288-12.169-.447-.79-.86-1.512-1.203-2.165-.31-.653-.55-1.238-.722-1.754-.31-.996-.31-1.581-.24-1.581.068 0 .205.516.618 1.444.206.447.481.997.86 1.616.377.618.824 1.272 1.306 2.062 1.993 3.025 4.674 7.288 7.562 11.997 1.444 2.372 2.819 4.606 4.022 6.669 1.203 2.062 2.234 4.022 2.922 5.706 1.547 3.334 1.822 5.637 1.684 5.672Zm3.369-16.122c-.138 0-.344-2.509 0-6.566.172-2.028.515-4.4 1.031-7.047.516-2.646 1.203-5.5 1.96-8.49a543.401 543.401 0 0 1 4.193-15.194c1.135-3.884 1.89-6.256 2.063-6.222.172.035-.344 2.475-1.272 6.394s-2.303 9.316-3.85 15.262c-.756 2.957-1.478 5.81-2.028 8.388a125.76 125.76 0 0 0-1.272 6.944c-.584 4.056-.653 6.531-.825 6.531Zm31.556 30.938c.034.137-1.684.756-4.606 1.203-2.922.447-6.944.618-11.413.79-4.434.172-8.456.275-11.378.275-2.922 0-4.71-.068-4.743-.206 0-.137 1.787-.378 4.709-.584 2.922-.207 6.944-.413 11.378-.585s8.456-.206 11.344-.447c2.922-.275 4.675-.618 4.71-.446Z"/>
  <path fill="#000" stroke="#000" stroke-miterlimit="10" stroke-width=".344" d="M69.378 327.984c.034.138-1.684.654-4.537 1.169-1.41.275-3.128.481-5.053.688a83.52 83.52 0 0 1-6.222.343c-2.2 0-4.332-.068-6.222-.206-1.925-.172-3.61-.344-5.053-.584-2.853-.447-4.572-.928-4.572-1.066.069-.344 7.081.86 15.812.756 8.766-.103 15.778-1.443 15.847-1.1Z"/>
  <path fill="#000" stroke="#000" stroke-miterlimit="10" stroke-width=".344" d="M68.381 327.194c.035.137-1.444.653-3.884 1.169-1.238.275-2.716.515-4.331.721-1.65.207-3.472.344-5.397.413a69.911 69.911 0 0 1-5.397-.034 62.953 62.953 0 0 1-4.4-.413c-2.475-.344-3.988-.722-3.953-.894.034-.343 6.153.516 13.715.207 7.529-.241 13.578-1.479 13.647-1.169Z"/>
  <path fill="#000" stroke="#000" stroke-miterlimit="10" stroke-width=".344" d="M69.138 326.987c.034.31-5.329.894-11.929 1.341-1.65.103-3.23.206-4.675.241a27.66 27.66 0 0 1-3.85-.069c-2.234-.206-3.506-.825-3.437-.962.034-.172 1.34.171 3.472.171 2.131.035 5.122-.309 8.422-.515 6.6-.413 11.997-.516 11.997-.207Z"/>
  <path fill="#000" stroke="#000" stroke-miterlimit="10" stroke-width=".344" d="M68.015 327.538c.066.198.353.281.64.185.29-.096.47-.335.403-.533-.066-.198-.353-.281-.641-.185-.288.096-.469.335-.402.533Z"/>
  <path fill="#000" stroke="#000" stroke-miterlimit="10" stroke-width=".344" d="M67.797 328.294c.342 0 .619-.246.619-.55 0-.304-.277-.55-.62-.55-.34 0-.618.246-.618.55 0 .304.277.55.619.55Zm1.581 29.837c.034.138-1.719.688-4.606 1.306-1.444.31-3.197.619-5.122.86-1.925.24-4.09.481-6.325.584-2.269.138-4.4.138-6.36.103-1.959-.034-3.712-.137-5.19-.309-2.956-.275-4.744-.653-4.71-.791.035-.343 7.288.379 16.226-.137 8.903-.447 16.018-1.96 16.087-1.616Z"/>
  <path fill="#000" stroke="#000" stroke-miterlimit="10" stroke-width=".344" d="M64.84 356.275c.07.138-.515.688-1.65 1.375-1.134.688-2.818 1.444-4.812 1.925-1.994.481-3.85.55-5.19.481-.344-.034-.62-.034-.894-.103-.138-.034-.24-.034-.378-.069-.103-.034-.241-.034-.275-.068-.07 0-.138 0-.172.034-.035.034 0 .069.034.069.035 0 .069 0 .069-.035v-.068c0-.035 0-.035-.035-.035h-.034l-.034-.034c-.035 0-.069-.034-.069-.034-.069-.035-.103-.104-.069-.172.035-.069.138-.138.275-.138.138-.034.206-.034.31-.034.103 0 .24-.035.343-.035.241 0 .55-.034.86-.068a33.39 33.39 0 0 0 4.915-.757c3.85-.893 6.635-2.509 6.807-2.234Z"/>
  <path fill="#000" stroke="#000" stroke-miterlimit="10" stroke-width=".344" d="M65.838 355.278c.137.275-2.304 1.788-5.638 2.922-3.334 1.134-6.222 1.375-6.256 1.066-.069-.31 2.647-1.032 5.912-2.132 3.231-1.1 5.844-2.165 5.982-1.856Zm.825 1.134c.137.275-1.238 1.341-3.197 2.097-1.994.757-3.713.894-3.782.585-.068-.31 1.479-.894 3.37-1.65 1.89-.722 3.437-1.307 3.608-1.032Z"/>
  <path fill="#000" stroke="#000" stroke-miterlimit="10" stroke-width=".344" d="M67.934 356.962c.138.275-1.1 1.204-2.853 1.822-1.753.619-3.3.688-3.369.413-.068-.31 1.307-.86 2.991-1.444 1.684-.619 3.094-1.066 3.231-.791Zm114.882-172.321c.275.137-.929 3.231-2.441 7.046-1.513 3.816-2.716 6.91-3.025 6.807-.275-.103.447-3.369 1.994-7.219 1.512-3.884 3.197-6.772 3.472-6.634Zm10.484 6.462c.137.275-3.163 2.2-6.772 5.156-3.644 2.922-6.222 5.775-6.462 5.569-.104-.103.378-.928 1.375-2.131.996-1.203 2.509-2.785 4.365-4.297a31.248 31.248 0 0 1 5.088-3.369c1.409-.756 2.337-1.065 2.406-.928Zm4.718 9.642c5.221-1.421 9.388-2.811 9.309-3.104-.08-.293-4.377.622-9.598 2.042-5.221 1.421-9.388 2.811-9.308 3.104.079.293 4.376-.621 9.597-2.042ZM446.3 302.994c-.034-.035.034-.138.206-.31.138-.171.378-.412.653-.721a13.324 13.324 0 0 0 1.96-2.888c.344-.653.687-1.409.962-2.234.31-.825.585-1.719.791-2.682.481-1.925.791-4.09 1.203-6.359.378-2.303.859-4.503 1.581-6.428.722-1.925 1.685-3.541 2.75-4.744.516-.584 1.135-1.065 1.788-1.272.653-.24 1.272-.172 1.684 0 .447.172.722.447.859.653.138.207.138.344.104.344-.069.069-.31-.412-1.066-.584a2.114 2.114 0 0 0-1.341.172c-.481.24-.962.653-1.409 1.203-.894 1.169-1.753 2.715-2.372 4.572-.653 1.856-1.066 3.987-1.444 6.256-.378 2.269-.721 4.469-1.306 6.462a25.643 25.643 0 0 1-.928 2.75c-.344.86-.722 1.616-1.134 2.269-.825 1.341-1.685 2.269-2.372 2.819-.344.275-.619.481-.825.584-.207.138-.31.172-.344.138Zm39.531 7.7c.035.034-.069.137-.309.309a6.334 6.334 0 0 0-.413.31c-.172.103-.343.24-.584.343-.894.516-2.303 1.135-4.091 1.616-.446.137-.928.206-1.443.309-.516.103-1.032.172-1.582.241-1.1.103-2.268.206-3.506.172-2.475 0-5.156-.31-7.94-.791a62.804 62.804 0 0 1-4.022-.825 47.647 47.647 0 0 1-3.713-1.065c-2.337-.791-4.331-1.754-5.912-2.785-1.547-1.031-2.682-2.028-3.369-2.819-.103-.103-.172-.171-.241-.275a1.504 1.504 0 0 0-.206-.24c-.138-.172-.206-.31-.309-.413-.172-.24-.207-.343-.207-.378.035-.034.138.069.378.241.104.103.241.206.379.344.068.068.137.137.24.206.103.069.172.137.275.24.756.688 1.925 1.547 3.472 2.475 1.547.894 3.541 1.754 5.809 2.475a46.55 46.55 0 0 0 3.644.963c1.272.275 2.613.55 3.988.791 2.75.481 5.362.79 7.734.859 1.203.034 2.338 0 3.369-.069.515-.069 1.031-.103 1.512-.172.482-.068.963-.137 1.41-.24 1.753-.344 3.162-.825 4.09-1.238.241-.103.447-.172.619-.275.172-.069.344-.137.447-.206.309-.103.447-.138.481-.103Zm7.872-29.563c-.103.172-1.444-.515-3.781-.962a24.187 24.187 0 0 0-4.159-.344c-1.582 0-3.335.103-5.157.275-1.856.138-3.609.309-5.225.309-1.615.035-3.094-.034-4.331-.206-1.203-.137-2.269-.447-2.853-.894a1.907 1.907 0 0 1-.585-.618c-.103-.172-.103-.275-.068-.275.069-.069.309.24.893.515.585.275 1.479.447 2.682.482 1.203.103 2.612.034 4.193-.035 1.582-.069 3.335-.275 5.191-.412 1.856-.138 3.644-.241 5.26-.172 1.615.034 3.093.275 4.296.584 2.475.688 3.713 1.65 3.644 1.753Zm-3.128 28.05c-.137.035-.481-1.34-.722-3.575a14.838 14.838 0 0 1-.103-1.822c-.034-.653-.034-1.375-.034-2.096.034-1.479.171-3.129.412-4.813.275-1.684.619-3.3 1.031-4.709.207-.722.413-1.375.654-1.994.206-.619.446-1.203.653-1.719.859-2.062 1.615-3.265 1.718-3.197.138.069-.343 1.375-.996 3.472-.172.516-.344 1.1-.516 1.719a81.76 81.76 0 0 0-.516 1.994 65.442 65.442 0 0 0-.928 4.64c-.24 1.65-.412 3.232-.481 4.675-.034.722-.069 1.41-.069 2.063-.034.653-.034 1.237-.034 1.787.034 2.2.103 3.575-.069 3.575Zm5.397 43.966c-.069-.069.481-.688 1.203-1.959.344-.654.722-1.479 1.066-2.441.309-.997.584-2.166.722-3.472.137-1.306.171-2.75.068-4.297-.103-1.547-.343-3.197-.687-4.915-.31-1.719-.722-3.541-1.1-5.466-.344-1.891-.688-3.884-.928-5.913-1.032-8.146-1.1-15.606-1.066-20.968.034-2.682.069-4.847.138-6.36.068-1.512.137-2.337.206-2.337.069 0 .137.825.206 2.337.069 1.513.137 3.678.206 6.36.172 5.362.378 12.753 1.375 20.831.241 2.028.55 3.987.894 5.878s.722 3.713 1.031 5.466c.31 1.753.516 3.437.585 5.053.068 1.581 0 3.093-.207 4.468a18.634 18.634 0 0 1-.928 3.576c-.412.996-.859 1.856-1.272 2.475-.79 1.203-1.478 1.718-1.512 1.684Z"/>
  <path fill="#000" stroke="#000" stroke-miterlimit="10" stroke-width=".344" d="M450.975 315.575c-.138.069-.55-.447-.859-1.478a14.526 14.526 0 0 1-.207-.825c-.068-.309-.068-.619-.103-.963-.034-.687.035-1.478.172-2.234a9.153 9.153 0 0 1 .756-2.131c.172-.31.31-.585.516-.86.172-.275.344-.481.516-.687.687-.791 1.272-1.1 1.375-.997.103.137-.241.619-.722 1.444-.103.206-.241.447-.378.687-.138.241-.241.516-.379.791-.24.584-.446 1.237-.584 1.925a14.288 14.288 0 0 0-.24 1.994v.893c0 .275.034.55.034.791.103.997.24 1.581.103 1.65Zm3.403 1.959c-.137.069-.584-.515-.962-1.581a6.094 6.094 0 0 1-.241-.928c-.069-.344-.103-.687-.172-1.066a10.177 10.177 0 0 1 .103-2.475c.172-.859.413-1.684.722-2.372.172-.343.31-.687.516-.962.172-.309.344-.55.55-.791.722-.893 1.34-1.272 1.444-1.168.137.103-.275.687-.791 1.615a4.182 4.182 0 0 0-.378.791c-.138.275-.241.584-.378.928a12.4 12.4 0 0 0-.585 2.166c-.137.79-.172 1.546-.172 2.234 0 .344 0 .688.035.997.034.309.069.584.103.859.172 1.032.378 1.685.206 1.753Zm18.769-.034c-.138.034-.378-.378-.55-1.066-.172-.721-.241-1.718-.034-2.818.206-1.1.618-2.028 1.031-2.647.412-.619.756-.894.894-.825.275.172-.482 1.684-.826 3.644-.378 1.959-.206 3.643-.515 3.712Zm5.362.962c-.137.069-.515-.412-.825-1.306-.171-.447-.275-.997-.343-1.615a8.074 8.074 0 0 1 .034-2.028 8.156 8.156 0 0 1 .516-1.96c.24-.584.481-1.065.756-1.478.55-.791 1.031-1.134 1.134-1.031.138.103-.103.619-.447 1.409-.172.413-.343.894-.481 1.409-.137.55-.275 1.135-.378 1.788a17.577 17.577 0 0 0-.103 1.822c0 .55.034 1.066.103 1.512.103.86.172 1.41.034 1.478Zm-30.318 7.391c-.31-.137.309-1.994.618-4.331.344-2.338.275-4.297.585-4.331.137-.035.378.446.515 1.271.138.825.172 1.96 0 3.232a11.535 11.535 0 0 1-.893 3.094c-.344.756-.688 1.134-.825 1.065Zm-5.5 25.3c-.138 0-.482-1.409-.619-3.781a32.79 32.79 0 0 1-.069-1.925c0-.688.035-1.444.069-2.234.103-1.582.275-3.3.619-5.088a49.31 49.31 0 0 1 1.237-4.95c.241-.756.481-1.444.756-2.097.241-.653.516-1.237.757-1.787.997-2.166 1.821-3.369 1.925-3.3.137.068-.413 1.409-1.204 3.609-.206.55-.412 1.134-.618 1.788-.206.653-.413 1.34-.653 2.096a53.267 53.267 0 0 0-1.135 4.847c-.309 1.753-.55 3.403-.687 4.95-.069.757-.138 1.478-.172 2.166-.035.687-.069 1.306-.069 1.891-.034 2.371 0 3.815-.137 3.815Zm45.684 5.466c.034.034-.103.137-.344.344-.137.103-.275.206-.481.378-.206.137-.413.275-.688.446a24.195 24.195 0 0 1-4.64 2.269 31.916 31.916 0 0 1-3.438 1.032c-1.272.309-2.612.55-4.056.687-2.887.344-6.084.309-9.419-.034-3.334-.379-6.428-1.032-9.212-1.719a62.413 62.413 0 0 1-3.919-1.1c-1.237-.378-2.372-.756-3.369-1.169a17.135 17.135 0 0 1-2.647-1.341 10.046 10.046 0 0 1-1.753-1.409c-.859-.894-1.134-1.547-1.065-1.581.069-.069.481.481 1.375 1.272.447.378 1.031.79 1.787 1.203.722.412 1.616.79 2.613 1.169a41.06 41.06 0 0 0 3.369.997c1.237.309 2.543.653 3.918.996 2.785.654 5.844 1.272 9.075 1.616 3.232.344 6.36.413 9.178.138a41.829 41.829 0 0 0 3.953-.585c1.238-.24 2.372-.55 3.369-.859 2.028-.653 3.61-1.375 4.71-1.891.275-.137.515-.24.721-.344.207-.103.379-.206.516-.275.275-.206.447-.275.447-.24Zm-12.925-7.46c-.172 0-.137-2.131-.344-5.568a44.228 44.228 0 0 0-.206-2.785c-.103-.997-.172-2.062-.516-3.059-.309-.997-.996-1.822-1.993-2.372-.997-.516-2.2-.756-3.472-.859-1.272-.103-2.578-.103-3.816-.172-1.237-.069-2.44-.172-3.575-.275-2.269-.241-4.331-.55-6.015-.894-3.404-.688-5.432-1.341-5.397-1.478.034-.172 2.131.241 5.534.722 1.684.24 3.712.481 5.981.653 1.135.103 2.303.172 3.541.206.619.035 1.237.034 1.891.069.653 0 1.306.034 1.959.103 1.34.103 2.716.344 3.919 1.031a4.71 4.71 0 0 1 1.547 1.307 5.15 5.15 0 0 1 .893 1.718c.378 1.169.413 2.303.447 3.3a40.86 40.86 0 0 1 .069 2.819c.034 3.403-.275 5.534-.447 5.534Zm30.044 8.147c-.035-.068.722-.756 2.131-1.925.344-.309.756-.618 1.169-.997.103-.068.172-.137.275-.206l.103-.103.034-.034-.034-.069c-.034-.103-.069-.172-.103-.275a2.346 2.346 0 0 1-.172-.447 41.482 41.482 0 0 0-.825-1.959c-.138-.344-.309-.688-.447-1.066l-.412-1.134c-.275-.791-.55-1.616-.86-2.441-.275-.859-.55-1.753-.825-2.681-.137-.481-.275-.928-.412-1.41-.138-.481-.241-.997-.379-1.478-.24-.997-.515-2.028-.756-3.094-.962-4.262-1.753-9.04-2.406-14.025-.653-4.984-1.134-9.762-1.616-14.093-.447-4.332-.859-8.25-1.271-11.516-.104-.825-.207-1.581-.276-2.337a68.213 68.213 0 0 1-.274-2.063c-.104-.653-.172-1.237-.241-1.822-.069-.55-.172-1.065-.241-1.512-.275-1.822-.378-2.853-.309-2.853s.344.962.756 2.784c.103.447.206.963.344 1.513.103.55.206 1.168.344 1.787.103.653.24 1.341.378 2.063.103.721.24 1.512.378 2.337.516 3.266.997 7.15 1.512 11.516.516 4.331 1.032 9.109 1.685 14.093.653 4.985 1.409 9.694 2.303 13.957.241 1.065.481 2.096.722 3.093.137.516.206.997.343 1.479.138.481.275.962.379 1.409.275.928.481 1.822.756 2.681.275.86.55 1.685.79 2.441.138.378.241.756.379 1.134.137.378.275.722.378 1.066.24.687.515 1.34.722 1.959.137.378.275.722.378 1.066l.069.137c0 .035-.069.069-.104.103a1.004 1.004 0 0 1-.24.172l-.413.31c-.447.343-.859.618-1.237.893-1.581 1.032-2.406 1.616-2.475 1.547Z"/>
  <path fill="#000" stroke="#000" stroke-miterlimit="10" stroke-width=".344" d="M453.111 308.575c.565.35 1.152.424 1.312.166.16-.259-.169-.752-.734-1.101-.565-.35-1.152-.424-1.312-.166-.16.259.169.751.734 1.101Z"/>
  <path fill="#000" stroke="#000" stroke-miterlimit="10" stroke-width=".344" d="M455.203 307.566c0 .137-.206.275-.55.309-.344.034-.791-.069-1.203-.378-.413-.275-.688-.688-.791-.997-.103-.309-.068-.55.069-.619.138-.068.344 0 .55.138.241.137.481.343.791.515.309.207.584.378.79.516.207.241.344.378.344.516Z"/>
  <path fill="#000" stroke="#000" stroke-miterlimit="10" stroke-width=".344" d="M453.717 306.818c.459.229.94.195 1.076-.077.136-.272-.125-.678-.584-.907-.458-.229-.94-.195-1.076.077-.136.272.126.678.584.907Zm23.796 4.873c.034.309-.825.687-1.925.55-1.1-.138-1.891-.688-1.754-.963.104-.309.929-.241 1.891-.137.928.103 1.753.24 1.788.55Z"/>
  <path fill="#000" stroke="#000" stroke-miterlimit="10" stroke-width=".344" d="M476.626 311.3c.908.076 1.665-.108 1.69-.411.025-.302-.69-.609-1.598-.685-.909-.076-1.665.108-1.69.411-.026.302.69.609 1.598.685Z"/>
  <path fill="#000" stroke="#000" stroke-miterlimit="10" stroke-width=".344" d="M476.181 311.209c.9.142 1.669.015 1.716-.285.048-.3-.643-.659-1.543-.802-.9-.143-1.668-.015-1.716.285-.048.3.643.659 1.543.802Zm-19.328 41.388c0 .137-1.34.172-3.437-.172a34.198 34.198 0 0 1-3.678-.791l-1.032-.309c-.343-.103-.722-.206-1.1-.378a3.473 3.473 0 0 1-1.168-.688c-.379-.309-.654-.79-.791-1.237-.275-.963-.138-1.788-.069-2.544.103-.756.172-1.478.241-2.166.172-1.374.344-2.612.481-3.678.309-2.096.584-3.368.756-3.368.172 0 .172 1.34.035 3.437-.069 1.066-.138 2.303-.275 3.713a239.95 239.95 0 0 0-.207 2.165c-.068.756-.137 1.513.035 2.132.103.309.24.549.447.756.206.206.515.344.825.481.309.138.653.241.997.344.343.103.687.206.996.309 1.307.413 2.51.722 3.541.997 2.131.584 3.403.859 3.403.997Z"/>
  <path fill="#000" stroke="#000" stroke-miterlimit="10" stroke-width=".344" d="M470.088 344.141c-.035.309-4.985.137-11.069-.653-6.085-.791-10.931-1.925-10.863-2.235.069-.309 4.95.31 11 1.1 6.05.791 10.966 1.478 10.932 1.788Z"/>
  <path fill="#000" stroke="#000" stroke-miterlimit="10" stroke-width=".344" d="M469.709 344.725c.069-.034.172.034.344.206s.344.481.447.894c.103.412.138.928.034 1.513a1.916 1.916 0 0 1-.137.412c-.034.069-.034.137-.103.241-.069.103-.103.206-.172.309-.241.412-.55.722-.894 1.066a6.48 6.48 0 0 1-.481-.516c-.172-.172-.344-.413-.516-.619-.103-.137-.137-.172-.172-.24-.034-.069-.103-.138-.137-.207-.172-.275-.275-.584-.378-.859a4.605 4.605 0 0 1-.275-1.547c0-.894.275-1.409.412-1.375.172.034.207.55.378 1.306.104.378.241.825.447 1.272.103.241.241.447.378.688.035.068.069.103.104.172l.103.137.068.069.069.069c.035-.035.103-.069.138-.138l.034-.034.069-.138c.034-.103.103-.206.137-.309.138-.413.207-.791.207-1.134-.069-.722-.241-1.135-.104-1.238Zm15.744 5.809c-.344-.034-.069-4.606-.687-10.14-.585-5.569-1.857-9.969-1.513-10.072.138-.035.619.997 1.203 2.784.275.894.55 1.96.825 3.163.241 1.203.482 2.543.619 3.987.138 1.41.241 2.785.241 4.022a45.57 45.57 0 0 1-.103 3.266c-.172 1.856-.447 2.99-.585 2.99Zm9.763-23.237c.103.103-.344.653-1.238 1.306-.447.309-1.031.619-1.719.928a10.63 10.63 0 0 1-2.303.653c-.825.138-1.65.172-2.372.138a9.823 9.823 0 0 1-1.925-.31c-1.065-.309-1.65-.687-1.581-.825.069-.171.722-.034 1.719.035.516.034 1.134.069 1.787.069.688-.035 1.41-.069 2.166-.207a17.557 17.557 0 0 0 2.131-.515c.653-.207 1.203-.447 1.685-.653.962-.413 1.547-.722 1.65-.619Zm-3.438 23.512c.103.069.035.516-.412.997-.241.241-.55.482-.963.688a4.476 4.476 0 0 1-1.409.344 3.9 3.9 0 0 1-1.444-.172c-.412-.138-.791-.344-1.031-.585-.516-.447-.653-.859-.55-.962.137-.103.447.103.962.275.241.103.55.172.894.24.344.069.722.069 1.134.069a5.18 5.18 0 0 0 1.1-.206c.344-.103.619-.241.86-.344.412-.206.722-.447.859-.344Zm6.841-63.181c-.172.034-.344-.447-.585-1.169-.24-.722-.481-1.718-.962-2.681-.481-.962-1.134-1.65-1.719-2.062-.55-.413-.997-.585-.997-.757 0-.137.55-.275 1.375.035.791.309 1.753 1.1 2.338 2.268.584 1.169.722 2.269.756 3.06 0 .79-.069 1.272-.206 1.306Zm-19.181-8.422c-.035.069-.275.069-.757-.034-.447-.103-1.1-.344-1.822-.756-.721-.413-1.546-.963-2.406-1.547-.859-.619-1.822-1.272-2.853-1.753-1.031-.482-2.131-.757-3.059-.688-.928.069-1.788.447-2.338.894a3.473 3.473 0 0 0-1.065 1.34c-.172.379-.207.654-.31.619-.034 0-.069-.069-.103-.206-.034-.138-.034-.309 0-.55.069-.481.344-1.203.963-1.822.618-.619 1.581-1.169 2.75-1.341 1.203-.137 2.475.172 3.643.722 1.169.55 2.166 1.272 2.991 1.925.859.653 1.581 1.272 2.234 1.719 1.238.963 2.166 1.341 2.132 1.478Zm17.909 47.025c-.138.035-.55-2.131-.997-5.672-.447-3.506-.894-8.422-1.169-13.818-.24-5.397-.275-10.313-.172-13.854.104-3.54.31-5.74.447-5.74.172 0 .241 2.2.344 5.74.103 3.541.241 8.422.481 13.819.241 5.397.585 10.278.825 13.785.275 3.54.413 5.74.241 5.74Z"/>
  <path fill="#000" stroke="#000" stroke-miterlimit="10" stroke-width=".688" d="M499.1 335.753c-.584.103-2.612-10.416-3.575-23.547-.962-13.131-.481-23.822.103-23.822.653 0 1.169 10.622 2.131 23.65.929 13.063 1.96 23.616 1.341 23.719Z"/>
  <path fill="#000" stroke="#000" stroke-miterlimit="10" stroke-width=".688" d="M501.816 343.969c-.31.069-1.204-2.888-2.235-7.735a170.783 170.783 0 0 1-1.581-8.593 216.416 216.416 0 0 1-1.409-10.588 188.848 188.848 0 0 1-.86-10.656c-.172-3.266-.24-6.222-.24-8.731 0-4.985.24-8.044.55-8.044.653 0 1.168 12.203 2.784 27.191 1.547 14.953 3.644 27.018 2.991 27.156Z"/>
  <path fill="#000" stroke="#000" stroke-miterlimit="10" stroke-width=".688" d="M496.316 353.284c-.104-.172.618-.584 1.443-1.684.825-1.1 1.719-2.922 1.891-5.397.103-1.237.069-2.612-.069-4.091-.137-1.478-.344-3.128-.515-4.846-.344-3.438-.722-7.185-1.066-11.138-1.375-15.812-1.994-28.703-1.375-28.737.619-.035 2.234 12.718 3.609 28.531.344 3.953.653 7.734.894 11.172.103 1.718.241 3.334.309 4.881.069 1.547.035 3.059-.206 4.4-.206 1.341-.619 2.578-1.134 3.541a8.811 8.811 0 0 1-1.685 2.234c-.584.516-1.1.825-1.443.997-.413.172-.619.206-.653.137Zm-15.297-41.525c-.103-.309 1.478-1.134 3.884-2.647a38.612 38.612 0 0 0 1.891-1.306c.618-.481 1.237-1.031 1.684-1.65.206-.309.378-.653.481-1.031.103-.378.172-.825.241-1.306.069-.516.103-1.032.172-1.582l.206-1.65c.584-4.434 1.547-8.353 2.441-11.137.893-2.784 1.684-4.434 1.959-4.331.619.172-1.031 7.115-2.166 15.778-.137 1.1-.275 2.165-.412 3.197-.069.55-.172 1.1-.378 1.684-.206.585-.481 1.134-.86 1.581-.687.928-1.546 1.513-2.303 1.994-.79.481-1.478.825-2.165 1.134-1.341.619-2.475.997-3.3 1.204-.86.171-1.341.206-1.375.068Zm-4.125-32.003c0 .31-.653.619-1.788.757a9.406 9.406 0 0 1-1.994.034 13.304 13.304 0 0 1-2.406-.447 13.591 13.591 0 0 1-2.269-.894c-.653-.344-1.237-.722-1.65-1.065-.893-.722-1.271-1.341-1.1-1.616.172-.275.86-.103 1.857.206.997.31 2.303.791 3.781 1.203 1.478.413 2.819.722 3.85.997 1.031.275 1.684.516 1.719.825Zm24.028 75.247c-.035-.069.069-.24.481-.24.378 0 .928.343 1.134 1.031.069.172.104.343.104.584 0 .069 0 .138-.035.206 0 .069-.034.103-.034.138v.069l-.035.103c-.034.034-.034.103-.068.137-.172.413-.516.756-.894 1.031a5.875 5.875 0 0 1-1.203.654c-.413.172-.825.343-1.306.55-3.644 1.478-8.904 3.025-14.85 3.815-2.991.378-5.844.55-8.457.516-2.612 0-4.95-.206-6.875-.447-.962-.137-1.856-.241-2.612-.413a52.838 52.838 0 0 1-1.066-.206c-.172-.034-.309-.069-.481-.103-.138-.034-.275-.069-.447-.103-.309-.103-.619-.275-.756-.516-.138-.24-.069-.481.034-.584a.474.474 0 0 1 .378-.206c.103 0 .207-.035.241-.069 0 0 0-.069-.069-.069-.069-.034-.137 0-.206.103-.034.069-.103.207.034.344.069.069.138.103.207.138a.762.762 0 0 0 .275.034h.859c.344 0 .687.034 1.066.034.756.035 1.65.035 2.612.069 1.925.035 4.194.069 6.738-.034a91.601 91.601 0 0 0 8.181-.688c5.775-.756 10.931-1.994 14.609-3.094.447-.137.894-.24 1.306-.378.413-.103.757-.24 1.032-.378.275-.137.481-.309.618-.481a.721.721 0 0 0 .172-.516c-.034-.378-.24-.687-.412-.79-.069-.172-.241-.172-.275-.241Z"/>
  <path fill="#000" stroke="#000" stroke-miterlimit="10" stroke-width=".688" d="M501.197 356.241c-.138.068-.413-.138-.825-.516a8.106 8.106 0 0 0-.756-.653 2.69 2.69 0 0 0-.963-.55c-.172-.069-.344-.069-.481-.069a.858.858 0 0 0-.481.138c-.172.103-.413.24-.654.412-.275.172-.55.378-.859.55a35.156 35.156 0 0 1-3.953 2.2c-2.888 1.444-5.637 2.372-7.7 2.888-1.066.275-2.028.309-2.647.137-.653-.137-.928-.412-.894-.55.035-.172.378-.172.894-.309.516-.103 1.238-.344 2.131-.756 1.857-.86 4.435-2.029 7.219-3.404 1.41-.687 2.716-1.375 3.919-1.993.309-.172.584-.31.859-.447.275-.138.619-.344.997-.447.791-.275 1.753-.138 2.303.206.619.344.963.791 1.203 1.169.275.378.413.722.55 1.031.275.55.275.894.138.963Z"/>
  <path fill="#000" stroke="#000" stroke-miterlimit="10" stroke-width=".688" d="M499.753 355.966c.172.275-.24.859-1.134 1.512-.86.653-2.235 1.341-3.85 1.719-1.616.378-3.128.412-4.194.206-1.066-.172-1.684-.516-1.684-.825.034-.309.653-.55 1.65-.756.962-.206 2.303-.481 3.712-.825 1.444-.344 2.716-.722 3.678-.963.997-.24 1.685-.343 1.822-.068Z"/>
  <path fill="#000" stroke="#000" stroke-miterlimit="10" stroke-width=".688" d="M500.028 356.069c-.137.275-.481.412-.894.481a8.267 8.267 0 0 1-1.375.103c-.515 0-.962 0-1.375-.103-.412-.069-.756-.206-.893-.481-.138-.275-.035-.653.343-1.032.378-.343 1.066-.653 1.857-.653.79 0 1.478.275 1.89.619.481.413.619.791.447 1.066Zm-8.837 4.065c2.318-.59 4.072-1.56 3.918-2.167-.155-.607-2.159-.621-4.478-.032-2.318.59-4.072 1.56-3.917 2.167.154.607 2.158.622 4.477.032Z"/>
  <path fill="#000" stroke="#000" stroke-miterlimit="10" stroke-width=".688" d="M501.438 356.997a.952.952 0 0 1-.104.859c-.171.275-.515.481-.928.55a1.396 1.396 0 0 1-1.065-.275.961.961 0 0 1-.344-.825c.034-.309.172-.584.378-.79.206-.207.447-.344.688-.379.275-.034.55.035.79.172.241.207.447.413.585.688Zm-27.294-43.381c0 .309-1.1.618-2.922.756-1.822.137-4.331.069-7.081-.413-2.75-.481-5.157-1.237-6.807-1.959-1.65-.722-2.612-1.409-2.509-1.684.241-.585 4.434.55 9.694 1.443 5.225.894 9.59 1.238 9.625 1.857Z"/>
  <path fill="#000" stroke="#000" stroke-miterlimit="10" stroke-width=".344" d="M489.716 337.678c.068-.034.206.241.55.516.343.275.996.584 1.787.447.756-.138 1.547-.757 2.028-1.753.241-.482.413-1.032.413-1.547 0-.516-.241-.963-.688-1.307a1.959 1.959 0 0 0-.756-.378c-.275-.068-.55-.137-.825-.137-.55 0-1.1.103-1.478.378-.413.275-.722.653-.963 1.065-.206.413-.343.86-.378 1.272-.034.413 0 .791.069 1.1.069.31.206.585.309.791.138.206.241.344.344.447.069.103.103.172.103.206-.034.035-.103.035-.24-.034-.138-.035-.31-.172-.516-.344a2.882 2.882 0 0 1-.584-.859 3.21 3.21 0 0 1-.275-1.341c0-.516.068-1.066.309-1.616s.619-1.134 1.203-1.546c.584-.447 1.341-.619 2.097-.619.378 0 .756.069 1.134.172.379.137.757.309 1.066.55.344.275.619.584.791.997l.137.309.069.309c.069.207.069.413.069.619 0 .791-.275 1.478-.585 2.063-.343.584-.756 1.099-1.272 1.443-.515.344-1.065.585-1.615.585-1.066.034-1.856-.482-2.166-.929-.24-.515-.206-.825-.137-.859Zm-6.708-15.166c.21 1.504.624 2.689.925 2.647.3-.042.374-1.295.165-2.799-.21-1.505-.624-2.69-.925-2.648-.301.042-.375 1.295-.165 2.8Z"/>
  <path fill="#000" stroke="#000" stroke-miterlimit="10" stroke-width=".344" d="M492.466 317.569c.068.309-1.822 1.1-4.229 1.822-1.237.378-2.509.515-3.403.24-.447-.137-.79-.343-.962-.515-.172-.172-.241-.31-.206-.378.103-.138.55.103 1.306.103.756.034 1.787-.172 2.956-.516 2.406-.722 4.435-1.066 4.538-.756Zm1.203 5.844c.069.137-.378.515-1.203.962-.825.447-2.028.859-3.438 1.1-1.409.206-2.715.172-3.609.034-.928-.137-1.444-.378-1.444-.55.069-.309 2.234-.171 4.881-.618 2.613-.378 4.675-1.203 4.813-.928Zm-31.763-22.035c.069-.069.413.138 1.032.481.618.31 1.581.791 2.75.86a3.825 3.825 0 0 0 1.821-.344 3.6 3.6 0 0 0 1.857-3.747c-.104-.825-.482-1.615-1.032-2.303a3.346 3.346 0 0 0-.962-.756c-.344-.172-.756-.241-1.135-.275-.79-.035-1.581.24-2.2.687a5.613 5.613 0 0 0-1.546 1.582c-.379.584-.653 1.203-.757 1.753-.103.584-.068 1.1.104 1.547.137.446.378.79.584 1.031.103.137.241.24.309.275.103.069.172.103.275.103.172.034.241-.069.241-.034.034.034 0 .206-.241.24a.58.58 0 0 1-.412-.034 1.745 1.745 0 0 1-.482-.275 2.75 2.75 0 0 1-.859-1.135 3.342 3.342 0 0 1-.275-1.89c.069-.722.344-1.444.756-2.166a6.59 6.59 0 0 1 1.753-1.925c.757-.55 1.754-.962 2.819-.928.516 0 1.1.103 1.616.344.516.24.962.619 1.341 1.031a5.547 5.547 0 0 1 1.306 2.888 4.689 4.689 0 0 1-.585 2.921c-.481.825-1.203 1.479-1.993 1.822-.791.344-1.616.378-2.303.31-1.41-.241-2.338-.86-2.922-1.307-.653-.343-.894-.687-.86-.756Z"/>
  <path fill="#000" stroke="#000" stroke-miterlimit="10" stroke-width=".344" d="M463.797 300.072c-.138.034-.31-.069-.447-.275-.138-.206-.172-.55-.138-.894.069-.344.241-.653.413-.791.172-.171.378-.206.516-.103.137.069.206.241.206.447.034.206 0 .413-.035.653a2.685 2.685 0 0 1-.171.619c-.069.172-.172.309-.344.344Zm1.866-.463c-.075.66.109 1.223.411 1.257.302.034.607-.473.682-1.134.075-.66-.109-1.223-.411-1.257-.302-.034-.607.473-.682 1.134Zm42.237 36.144c-.034 0-.034-.137-.069-.378a8.696 8.696 0 0 1-.068-1.134c-.035-.997.034-2.51.412-4.4.172-.928.481-1.96.825-3.094.378-1.1.825-2.303 1.409-3.541 1.135-2.475 2.647-5.19 4.297-8.147 1.65-2.956 3.507-6.187 4.882-9.9.653-1.856 1.203-3.815 1.409-5.912.034-.516.103-1.031.103-1.581v-.791c0-.275-.034-.516-.034-.791-.069-1.065-.275-2.131-.447-3.231-.206-1.1-.413-2.234-.516-3.437-.103-1.203-.034-2.407.103-3.61.31-2.406 1.032-4.709 1.513-7.081.481-2.372.722-4.812.584-7.287a22.08 22.08 0 0 0-.516-3.679 15.843 15.843 0 0 0-1.271-3.506c-.138-.275-.275-.55-.447-.825l-.241-.412c-.069-.138-.172-.241-.24-.344-.172-.206-.344-.378-.516-.413-.138-.034-.241-.034-.447.069-.172.103-.413.31-.619.55l-.618.653-.172.172-.138.172-.275.378c-.172.241-.378.481-.55.756-1.34 2.063-2.165 4.366-2.75 6.704-.584 2.337-.962 4.709-1.375 7.046-.412 2.338-.859 4.607-1.547 6.807-.687 2.165-1.478 4.193-1.89 6.222-.447 2.028-.344 4.056-.172 6.05.137 1.993.344 3.953.137 5.843-.206 1.891-.722 3.678-1.34 5.26-.619 1.615-1.307 3.093-1.96 4.468a60.007 60.007 0 0 0-1.718 3.954c-.929 2.509-1.307 4.812-1.307 6.668 0 .928.138 1.753.275 2.475.069.344.172.653.275.963.103.275.207.55.31.756.103.241.206.413.275.584.068.172.172.31.24.413.138.206.172.344.172.344l-.275-.275a9.667 9.667 0 0 0-.275-.378 31.717 31.717 0 0 1-.344-.585c-.103-.24-.24-.481-.343-.756-.103-.309-.241-.619-.344-.963a10.715 10.715 0 0 1-.378-2.543c-.103-1.925.24-4.297 1.134-6.91.447-1.306 1.031-2.612 1.65-4.022.619-1.409 1.272-2.887 1.856-4.468.585-1.582 1.066-3.266 1.204-5.088.171-1.787-.035-3.712-.207-5.706a30.02 30.02 0 0 1-.172-3.094c0-1.065.103-2.165.31-3.231.412-2.166 1.237-4.228 1.89-6.359.653-2.132 1.066-4.366 1.479-6.669.412-2.303.756-4.71 1.34-7.116.585-2.406 1.444-4.847 2.888-7.047.172-.275.378-.515.584-.79l.309-.378.138-.207.172-.172.687-.721c.207-.241.447-.482.825-.722.172-.103.413-.207.653-.241.241-.034.516 0 .757.103.447.172.756.481.996.791.104.137.207.309.31.447l.241.447c.171.275.343.584.481.893a18.759 18.759 0 0 1 1.34 3.747c.31 1.272.482 2.578.55 3.885.138 2.578-.137 5.121-.618 7.562-.482 2.441-1.203 4.744-1.513 7.013a15.863 15.863 0 0 0-.137 3.368c.103 1.1.309 2.235.481 3.335.206 1.1.412 2.234.447 3.368 0 .275.034.55.034.825v.825c0 .55-.069 1.1-.103 1.65-.206 2.166-.825 4.229-1.513 6.119-1.443 3.816-3.368 7.047-5.053 9.969-1.718 2.922-3.265 5.603-4.434 8.009a44.877 44.877 0 0 0-1.478 3.438c-.378 1.065-.722 2.097-.928 2.99-.447 1.822-.585 3.3-.619 4.297.034.997.069 1.547 0 1.547Z"/>
  <path fill="#000" stroke="#000" stroke-miterlimit="10" stroke-width=".344" d="M507.625 295.431c-.103-.034.241-1.203.034-3.334-.068-1.066-.309-2.372-.687-3.85-.378-1.478-.894-3.163-1.306-5.088a26.89 26.89 0 0 1-.482-3.059c-.103-1.1-.068-2.234 0-3.369.069-1.134.172-2.303.138-3.506-.035-1.169-.241-2.372-.585-3.575-.653-2.441-1.821-4.881-2.681-7.597-.206-.687-.412-1.375-.55-2.097a22.796 22.796 0 0 1-.309-2.2c-.138-1.478-.172-2.956-.241-4.434-.034-.722-.069-1.478-.137-2.2-.035-.344-.069-.722-.103-1.066a7.703 7.703 0 0 0-.172-.997c-.172-.618-.447-.893-.963-.893-.515 0-1.1.275-1.581.653-.481.412-.963.893-1.341 1.409s-.687 1.1-.962 1.65c-.55 1.169-.894 2.406-1.1 3.644-.447 2.475-.481 4.916-.791 7.219-.275 2.303-.859 4.468-1.925 6.187-.515.86-1.065 1.616-1.581 2.338-.481.721-.928 1.409-1.272 2.062a6.034 6.034 0 0 0-.722 3.678c.069.516.206.963.378 1.341.172.378.378.653.55.859.378.413.653.55.619.619 0 .034-.309-.069-.791-.447-.206-.206-.481-.481-.687-.859a4.832 4.832 0 0 1-.516-1.41 5.738 5.738 0 0 1-.034-1.89c.034-.344.103-.688.206-1.066.103-.344.241-.722.413-1.066.653-1.443 1.787-2.853 2.715-4.503.963-1.65 1.478-3.678 1.685-5.912.137-1.134.206-2.303.275-3.506.068-1.204.172-2.51.412-3.782.241-1.306.55-2.612 1.135-3.918.584-1.272 1.443-2.51 2.612-3.472a5.108 5.108 0 0 1 1.031-.619 3.005 3.005 0 0 1 1.272-.275c.447 0 .963.172 1.341.516.378.343.584.79.687 1.203.103.412.138.79.207 1.134.034.378.103.756.103 1.1.068.756.103 1.478.137 2.235.069 1.478.103 2.956.241 4.365.069.722.172 1.41.309 2.063.138.687.31 1.34.516 1.993.79 2.613 1.959 5.088 2.647 7.632.343 1.272.55 2.578.584 3.815.034 1.272-.103 2.441-.172 3.575-.103 1.135-.172 2.2-.069 3.231a19.82 19.82 0 0 0 .413 2.957c.378 1.89.825 3.609 1.134 5.122.31 1.512.482 2.853.516 3.987v.791c0 .24-.034.481-.034.687-.069.413-.104.791-.172 1.066-.207.584-.31.859-.344.859Zm-2.613 38.156c-.068 0-.034-.893.172-2.475.207-1.581.585-3.85 1.238-6.634.619-2.784 1.512-6.05 2.612-9.625 1.066-3.609 2.338-7.528 3.644-11.653 1.272-4.125 2.406-8.078 3.231-11.722.825-3.644 1.375-6.944 1.65-9.762.585-5.603.241-9.11.413-9.144.069 0 .24.859.344 2.441.137 1.581.171 3.884 0 6.737-.172 2.853-.654 6.222-1.444 9.9-.791 3.678-1.891 7.666-3.163 11.825-1.272 4.125-2.578 8.044-3.712 11.619-1.135 3.575-2.097 6.806-2.819 9.522a160.941 160.941 0 0 0-1.581 6.496c-.31 1.616-.516 2.475-.585 2.475Z"/>
  <path fill="#000" stroke="#000" stroke-miterlimit="10" stroke-width=".344" d="M502.228 310.969c-.172 0-.206-2.956-.584-7.7a186.998 186.998 0 0 0-.928-8.285c-.413-3.128-.929-6.531-1.479-10.14-1.1-7.185-1.959-13.75-2.199-18.528a25.262 25.262 0 0 1 .034-3.266 13.38 13.38 0 0 1 .412-2.441c.379-1.306.791-1.959.86-1.925.069.035-.206.722-.447 2.029a19.711 19.711 0 0 0-.241 2.371c-.034.929.035 1.994.138 3.163.447 4.709 1.409 11.241 2.509 18.425.55 3.609 1.031 7.047 1.41 10.175.378 3.128.584 5.981.687 8.387.103 2.407.103 4.332.034 5.672-.034 1.341-.137 2.063-.206 2.063Zm-48.4 7.322c.069.103-.172.447-.79.618-.31.104-.688.104-1.1.035-.413-.069-.826-.241-1.238-.481-.378-.275-.722-.619-.928-.963-.206-.344-.344-.722-.378-1.031-.069-.619.137-.997.275-.963.172 0 .275.344.481.722.069.103.103.206.206.31.069.103.172.206.275.343.207.207.447.447.722.619.275.172.585.309.86.413.137.034.275.103.412.103.138.034.241.034.378.068.413.069.756.035.825.207Zm24.131 1.134c.104.103-.103.481-.653.825-.275.172-.653.309-1.065.413a4.892 4.892 0 0 1-1.41 0 4.006 4.006 0 0 1-1.306-.516c-.378-.241-.653-.481-.859-.756-.413-.516-.447-.963-.31-1.032.138-.068.413.172.86.447.206.138.481.275.79.413.31.137.653.24 1.032.309.378.069.756.069 1.065.069.344-.034.653-.069.894-.103.515-.069.859-.206.962-.069Zm-375.925 25.231c-.034.31-6.359-.447-14.162-.962-7.803-.55-14.163-.619-14.163-.928 0-.31 6.394-.722 14.266-.172 7.838.515 14.128 1.787 14.059 2.062Zm-7.544 4.657c5.827.493 10.571.647 10.596.344.026-.303-4.676-.948-10.503-1.44-5.826-.493-10.57-.648-10.595-.345-.026.303 4.676.948 10.503 1.441Zm117.338 26.934c0 .137-2.337.24-6.153.172-3.781-.035-9.041-.241-14.781-.653a332.122 332.122 0 0 1-14.747-1.375c-3.747-.482-6.085-.86-6.05-1.032 0-.172 2.372-.034 6.119.241 3.781.275 8.971.653 14.746 1.066 5.775.378 10.966.721 14.747.962 3.816.275 6.154.447 6.119.619Zm-2.289-3.972c7.82.135 14.163-.001 14.169-.305.005-.304-6.33-.66-14.15-.795-7.821-.135-14.164.001-14.17.305-.005.303 6.33.659 14.151.795ZM233.278 34.01c.069.137-.825.721-2.234 1.718-.344.24-.722.516-1.135.86-.412.309-.825.653-1.237.996a35.268 35.268 0 0 0-2.681 2.51 33.198 33.198 0 0 0-2.372 2.819c-.344.446-.653.893-.963 1.306-.309.412-.55.79-.79 1.169-.928 1.443-1.478 2.406-1.616 2.337-.137-.069.138-1.134.928-2.716.206-.412.413-.825.688-1.272.24-.446.584-.928.893-1.409.688-.962 1.479-1.994 2.407-2.956.928-.997 1.925-1.822 2.853-2.544.481-.344.928-.687 1.375-.962.447-.31.859-.55 1.237-.757 1.547-.893 2.578-1.237 2.647-1.1Zm191.335 324.132c12.206.196 22.105.11 22.11-.194.005-.304-9.886-.709-22.092-.906-12.206-.197-22.105-.111-22.11.193-.005.304 9.886.71 22.092.907Zm17.459 3.186c7.708 0 13.956-.246 13.956-.55 0-.304-6.248-.55-13.956-.55-7.708 0-13.956.246-13.956.55 0 .304 6.248.55 13.956.55Z"/>
  <path fill="#000" stroke="#000" stroke-miterlimit="10" stroke-width=".688" d="M150.984 86.844c.035.31-1.203.756-3.231 1.134-2.062.378-4.916.653-8.112.619-3.197-.034-6.05-.378-8.113-.825-2.028-.413-3.266-.928-3.231-1.203.103-.619 5.156-.275 11.344-.207 6.187.07 11.24-.171 11.343.482Zm42.882 1.854c9.673.431 17.536.273 17.564-.353.028-.626-7.79-1.483-17.463-1.913-9.672-.431-17.536-.273-17.564.353-.028.626 7.791 1.483 17.463 1.913Zm62.237 1.308c.103.585-3.369 1.719-7.803 1.925-4.434.207-8.009-.584-7.975-1.168.034-.62 3.575-.86 7.872-1.066 4.262-.206 7.803-.31 7.906.31Zm-15.194 27.26c0 .137-1.615.24-4.503.24-2.887 0-7.115-.034-12.272-.103-5.19-.069-11.343-.172-18.218-.275-6.841-.103-14.403-.172-22.31-.275-7.906-.069-15.434-.103-22.309-.137-6.841-.035-13.028-.035-18.219-.069-5.19-.034-9.384-.069-12.272-.138-2.887-.068-4.503-.172-4.503-.343 0-.172 1.581-.344 4.503-.55 2.888-.207 7.082-.413 12.272-.585 5.191-.172 11.378-.309 18.219-.412 6.875-.069 14.403-.103 22.344-.035 7.906.069 15.468.241 22.343.447 6.875.206 13.029.482 18.219.757 5.191.275 9.385.549 12.272.824 2.853.31 4.469.516 4.434.654Zm28.91 18.287c0 .31-6.05.31-15.813.138-9.762-.172-23.203-.413-38.087-.688-14.885-.172-28.36-.344-38.088-.481-9.762-.138-15.778-.275-15.778-.619 0-.172 1.513-.309 4.228-.516 2.716-.171 6.669-.343 11.55-.481 9.763-.275 23.238-.412 38.156-.172 14.885.241 28.36.757 38.122 1.341 4.882.275 8.8.584 11.55.825 2.647.275 4.16.516 4.16.653Zm-120.244 17.119c.034.619-3.884 1.203-8.697.756-4.812-.447-8.559-1.753-8.422-2.337.138-.619 3.953-.31 8.628.103 4.641.447 8.491.859 8.491 1.478Zm25.711 1.884c7.014.394 12.727.205 12.762-.42.035-.626-5.621-1.452-12.634-1.845-7.014-.394-12.727-.205-12.762.42-.036.626 5.621 1.452 12.634 1.845Zm119.97-3.328c-.034.309-3.781.344-9.9.275-3.025-.034-6.668-.034-10.69-.069-4.022 0-8.422 0-13.063.035-4.64.068-9.04.172-13.062.275-4.022.137-7.632.24-10.691.343-6.084.207-9.866.275-9.9-.034-.034-.309 3.713-.928 9.797-1.547 3.025-.309 6.669-.584 10.691-.825 4.021-.206 8.456-.378 13.131-.447 4.675-.034 9.109 0 13.131.138 4.022.137 7.666.344 10.725.55 6.119.447 9.866.997 9.831 1.306Zm29.902 1.027c7.022.194 12.728-.157 12.745-.783.017-.626-5.661-1.291-12.682-1.485-7.022-.193-12.728.157-12.745.784-.018.626 5.66 1.29 12.682 1.484Zm54.707 1.412c11.371-.152 20.582-.784 20.573-1.41-.008-.627-9.233-1.011-20.603-.858-11.371.152-20.582.784-20.574 1.41.009.627 9.233 1.011 20.604.858Zm-60.512-62.354c-.069.618-6.222.378-13.784-.172-7.563-.55-13.681-1.204-13.681-1.857 0-.618 6.221-.962 13.853-.378 7.597.585 13.681 1.822 13.612 2.406Zm-67.375-20.66c-.034.31-4.125.344-10.794.24-6.634-.102-15.812-.274-25.953-.446-10.14-.138-19.318-.24-25.953-.31-6.634-.103-10.759-.24-10.759-.584 0-.31 4.09-.722 10.759-1.031 6.669-.31 15.847-.481 26.022-.344 10.175.138 19.353.619 25.988 1.1 6.6.516 10.69 1.066 10.69 1.375Zm152.591 49.672c-.069.653-13.406-.309-29.838-.412-16.465-.138-29.803.687-29.872.034-.034-.31 3.3-.894 8.697-1.409 2.716-.275 5.913-.482 9.522-.654 3.575-.137 7.528-.24 11.688-.206 4.125.035 8.078.172 11.653.378 3.575.206 6.806.481 9.487.756 5.397.585 8.697 1.204 8.663 1.513Zm11.55 136.434c0 .069-.688.172-2.028.31-1.341.137-3.335.275-5.878.447-2.544.171-5.672.343-9.316.515-3.644.172-7.769.378-12.341.55-4.572.206-9.59.378-14.953.55-5.362.172-11.137.344-17.187.516-12.1.275-25.404.515-39.36.619-13.956.103-27.259.068-39.359-.069-6.05-.069-11.791-.138-17.188-.241-5.397-.103-10.381-.206-14.953-.344-4.572-.103-8.697-.275-12.34-.378-3.644-.137-6.772-.275-9.316-.378-2.544-.137-4.537-.24-5.878-.343-1.341-.104-2.063-.207-2.063-.276 0-.068.722-.137 2.063-.171 1.341-.035 3.334-.069 5.878-.069h9.316c3.643 0 7.768.034 12.34.069 9.144.034 20.041.068 32.141.103 12.1 0 25.403-.035 39.325-.103 13.956-.104 27.259-.275 39.325-.447 12.1-.207 22.962-.413 32.14-.585 4.572-.103 8.697-.171 12.341-.24 3.644-.069 6.772-.103 9.316-.138 2.543-.034 4.537-.034 5.878 0 1.375-.034 2.097 0 2.097.103Zm-77.585-15.331c.035.309-4.125.963-10.896 1.581-1.685.138-3.541.31-5.535.447-1.994.138-4.125.241-6.359.378-4.469.207-9.419.31-14.61.344-5.19 0-10.106-.137-14.609-.344-2.234-.103-4.366-.206-6.359-.378-1.994-.137-3.85-.275-5.535-.447-6.772-.618-10.897-1.272-10.897-1.581.035-.309 4.229-.206 10.966 0 1.684.034 3.541.103 5.534.172 1.994.034 4.125.103 6.36.172 4.468.069 9.384.137 14.54.172 5.157 0 10.072-.069 14.541-.138 2.234-.069 4.366-.103 6.359-.137 1.994-.069 3.85-.103 5.535-.172 6.772-.275 10.965-.378 10.965-.069Zm30.018-.219c9.49-.214 17.171-.896 17.157-1.522-.014-.626-7.719-.96-17.208-.746-9.49.214-17.171.895-17.157 1.522.014.626 7.718.96 17.208.746Zm46.536-2.29c.034.619-5.019 1.444-11.344 1.478-6.325.069-11.413-.653-11.378-1.272.034-.619 5.121-.928 11.343-.997 6.257 0 11.344.172 11.379.791Zm-78.296-6.635c28.913 0 52.353-.508 52.353-1.135 0-.626-23.44-1.134-52.353-1.134-28.914 0-52.354.508-52.354 1.134 0 .627 23.44 1.135 52.354 1.135Zm-49.236 46.51c0 .309-3.815.79-10.003 1.272-6.222.481-14.781.928-24.303 1.168-9.488.241-18.081.207-24.303.035-6.222-.172-10.072-.481-10.072-.756 0-.31 3.85-.585 10.072-.825 6.222-.241 14.781-.482 24.269-.688 9.487-.241 18.046-.447 24.268-.516 6.188-.068 10.038 0 10.072.31Zm84.606-1.783c25.54-.822 46.229-1.995 46.209-2.621-.02-.626-20.742-.468-46.282.353-25.541.821-46.23 1.995-46.21 2.621.021.626 20.742.468 46.283-.353Zm-62.4 24.96c43.03-.915 77.901-2.165 77.888-2.791-.013-.627-34.907-.393-77.937.522s-77.901 2.165-77.888 2.791c.013.627 34.907.393 77.937-.522Z"/>
  <path fill="#000" stroke="#000" stroke-miterlimit="10" stroke-width=".344" d="M237.609 231.872c.069-.069.55.516 1.547 1.306.516.413 1.135.859 1.96 1.306.79.413 1.787.825 2.887 1.032 1.1.24 2.372.275 3.678.068 1.306-.24 2.613-.79 3.816-1.65a11.175 11.175 0 0 0 3.025-3.506c.791-1.409 1.375-3.025 1.512-4.744.172-1.718-.103-3.403-.653-4.915-.55-1.513-1.375-2.888-2.406-3.919-.516-.516-1.1-.963-1.684-1.341-.138-.103-.31-.172-.447-.275-.138-.068-.31-.137-.447-.206-.309-.137-.619-.24-.928-.344-1.238-.378-2.544-.412-3.678-.447a10.68 10.68 0 0 0-5.225 1.169c-1.135.585-1.719 1.066-1.788.997-.034-.034.413-.619 1.547-1.375.55-.378 1.306-.756 2.234-1.066a10.286 10.286 0 0 1 3.232-.515c.618 0 1.203 0 1.89.034.653.035 1.375.138 2.063.31.343.103.722.206 1.065.378.172.069.344.137.516.24.172.103.344.172.516.275.653.379 1.306.86 1.89 1.444 1.203 1.134 2.132 2.647 2.75 4.297a12.26 12.26 0 0 1 .722 5.397c-.172 1.89-.791 3.644-1.684 5.191-.86 1.546-2.063 2.818-3.369 3.781-1.341.928-2.853 1.512-4.262 1.719-1.444.206-2.819.103-3.988-.207a10.665 10.665 0 0 1-3.025-1.272 10.702 10.702 0 0 1-1.925-1.512c-1.031-.963-1.375-1.616-1.341-1.65Z"/>
  <path fill="#000" stroke="#000" stroke-miterlimit="10" stroke-width=".344" d="M249.987 221.808c.108 1.172.441 2.1.743 2.072.303-.028.46-1.001.352-2.173-.108-1.172-.441-2.1-.744-2.072-.302.028-.46 1.001-.351 2.173Z"/>
  <path fill="#000" stroke="#000" stroke-miterlimit="10" stroke-width=".172" d="M241.459 231.15c0-.034.069 0 .241.034.137.035.344.104.584.172.516.138 1.272.275 2.235.31.962 0 2.097-.138 3.231-.619a8.068 8.068 0 0 0 1.684-.928c.55-.378 1.066-.86 1.307-1.478.206-.619.068-1.307-.413-1.582a1.734 1.734 0 0 0-.825-.206c-.309 0-.584.069-.859.172-.55.206-1.1.516-1.616.756-.516.241-1.031.447-1.512.585a7.37 7.37 0 0 1-2.304.378c-.55 0-.859-.103-.859-.138 0-.103 1.238.035 3.025-.619.447-.171.928-.378 1.444-.618.515-.241 1.031-.585 1.65-.825.619-.241 1.444-.378 2.165.034.379.206.654.585.757.997.103.413.068.859-.069 1.237-.309.791-.928 1.341-1.513 1.719-.584.413-1.203.756-1.821.963-1.238.447-2.441.584-3.438.515-.997-.068-1.787-.275-2.303-.481-.275-.103-.447-.206-.584-.275-.172-.034-.241-.103-.207-.103Z"/>
  <path fill="#000" stroke="#000" stroke-miterlimit="10" stroke-width=".172" d="M252.184 227.575c0 .069-.275.103-.687.034-.413-.068-.963-.275-1.513-.653a4.09 4.09 0 0 1-1.168-1.134c-.241-.344-.31-.585-.241-.653.138-.103.756.653 1.719 1.306.997.687 1.925.962 1.89 1.1Zm-11.343-3.334c-.069.034-.207-.104-.31-.344a1.769 1.769 0 0 1-.068-1.066c.103-.412.309-.756.515-.962.206-.207.378-.241.413-.207.103.138-.275.585-.378 1.272-.172.653-.035 1.238-.172 1.307Z"/>
  <path fill="#000" stroke="#000" stroke-miterlimit="10" stroke-width=".344" d="M293.744 125.412c.068-.034.343.55.997 1.513.653.928 1.753 2.234 3.506 3.197.859.481 1.925.859 3.059 1.065 1.169.207 2.441.241 3.713-.034a8.73 8.73 0 0 0 3.643-1.753 8.144 8.144 0 0 0 2.51-3.506 9.884 9.884 0 0 0 .55-4.332c-.138-1.443-.413-2.818-.928-4.021a7.97 7.97 0 0 0-2.166-2.957c-.412-.378-.894-.687-1.375-.962-.481-.275-.962-.516-1.409-.653a7.544 7.544 0 0 0-2.613-.482c-.79 0-1.478.138-1.994.344-1.065.378-1.581.791-1.65.722-.034-.034.069-.172.31-.378.24-.206.619-.481 1.169-.756s1.271-.482 2.131-.55c.859-.069 1.856.034 2.922.378.515.172 1.031.378 1.581.653.516.275 1.066.584 1.547.997 1.031.79 1.89 1.925 2.509 3.265.31.654.55 1.375.722 2.097.103.378.172.757.206 1.1.069.378.103.757.138 1.135.172 1.547 0 3.231-.585 4.812a9.042 9.042 0 0 1-2.887 3.953 9.452 9.452 0 0 1-4.125 1.925 10.176 10.176 0 0 1-4.091-.068c-1.237-.275-2.372-.722-3.3-1.307-1.856-1.168-2.887-2.647-3.472-3.678-.55-1.031-.653-1.684-.618-1.719Z"/>
  <path fill="#000" stroke="#000" stroke-miterlimit="10" stroke-width=".344" d="M307.3 119.426c.011 1.044.267 1.888.57 1.885.304-.004.541-.853.53-1.897-.011-1.044-.266-1.888-.57-1.884-.304.003-.541.852-.53 1.896Zm-.116 6.021c.104.103-.24.584-.928 1.237-.343.31-.825.653-1.375.928-.584.275-1.272.516-2.062.551a3.129 3.129 0 0 1-1.135-.104 6.615 6.615 0 0 1-.996-.378 4.932 4.932 0 0 1-1.341-1.065c-.619-.722-.894-1.238-.791-1.341.103-.103.585.206 1.306.722a7.4 7.4 0 0 0 1.272.722 3.575 3.575 0 0 0 1.616.275c1.203-.069 2.269-.619 3.059-1.032.757-.378 1.272-.653 1.375-.515Z"/>
  <path fill="#000" stroke="#000" stroke-miterlimit="10" stroke-width=".086" d="M306.359 122.662c.069.035-.103.344-.446.619-.31.275-.654.378-.688.31-.034-.069.206-.275.516-.516.309-.241.55-.447.618-.413Zm.532.842c.379-.346.644-.672.592-.728-.051-.056-.399.179-.777.525-.378.346-.644.672-.592.728.051.056.399-.179.777-.525Zm1.173-.118c.373-.405.63-.775.574-.827-.055-.051-.403.236-.776.641s-.63.775-.574.826c.056.052.403-.235.776-.64Z"/>
  <path fill="#000" stroke="#000" stroke-miterlimit="10" stroke-width="1.031" d="M121.044 206.228c-.069.378-3.3.069-8.594-.79-2.647-.413-5.844-.997-9.384-1.65-1.788-.344-3.678-.722-5.638-1.1-.24-.035-.481-.104-.756-.138l-.378-.069-.138-.034c-.137-.035-.275-.035-.412-.069-.24-.034-.516-.069-.757-.137.207.309.413.653.62.996a470.5 470.5 0 0 0 2.234 3.679c11.171 18.631 19.593 34.134 18.803 34.615-.791.482-10.519-14.231-21.69-32.862-2.304-3.85-4.538-7.597-6.67-11.172a690.2 690.2 0 0 1 5.466 1.237c.894.207 1.753.413 2.612.585.585.137 1.17.275 1.72.412 1.959.482 3.815.928 5.568 1.341 3.541.859 6.634 1.684 9.247 2.372 5.156 1.34 8.215 2.406 8.147 2.784Z"/>
  <path fill="#000" d="M167.381 339.088s-.034.034-.068.103c-.035.034-.104.137-.172.206-.069.069-.172.206-.275.275a3.602 3.602 0 0 1-.379.309 2.981 2.981 0 0 1-.928.482 3.636 3.636 0 0 1-1.065.171c-.378 0-.722-.068-1.066-.171a2.981 2.981 0 0 1-.928-.482c-.137-.103-.275-.206-.378-.309l-.275-.275c-.069-.069-.138-.172-.172-.206-.034-.069-.069-.103-.069-.103s.035-.035.069-.104c.034-.034.103-.137.172-.206.069-.069.172-.206.275-.275.103-.103.241-.206.378-.309.275-.207.584-.378.928-.481a3.615 3.615 0 0 1 1.066-.172c.378 0 .722.068 1.065.172.344.103.653.274.928.481.138.103.276.206.379.309l.275.275c.068.069.137.172.172.206.068.069.068.104.068.104Z"/>
  <path stroke="#000" stroke-miterlimit="10" stroke-width="4.813" d="m243.487 209.941 147.435.103c19.078 0 34.684 17.084 34.684 37.95v53.178c0 20.866-15.606 37.95-34.684 37.95H210.041m-43.175-128.975 59.468-.103"/>
  <path fill="#000" stroke="#000" stroke-miterlimit="10" stroke-width=".344" d="M244.02 211.181c1.001-.102 1.788-.43 1.757-.732-.031-.302-.868-.465-1.869-.362-1.001.102-1.787.43-1.756.732.031.302.867.464 1.868.362Z"/>
  <path fill="#000" stroke="#000" stroke-miterlimit="10" stroke-width=".344" d="M244.794 210.009c0 .31-.413.55-.928.619-.482.069-.963-.069-1.032-.378-.068-.309.31-.653.894-.756.584-.069 1.066.206 1.066.515Zm-16.363-1.34c.069.309-.447.687-1.203.722-.756.034-1.306-.275-1.272-.585.035-.309.585-.481 1.203-.55.619-.034 1.203.103 1.272.413Z"/>
  <path fill="#000" stroke="#000" stroke-miterlimit="10" stroke-width=".344" d="M227.744 209.081c.137.275-.206.722-.791.894-.584.172-1.1 0-1.169-.309-.034-.31.344-.619.825-.791.482-.103.963-.069 1.135.206Z"/>
  <path stroke="#000" stroke-miterlimit="10" stroke-width="4.813" d="M216.538 209.941h33.618m112.475-158.95 38.156 1.134c16.775-2.544 33.516-5.087 50.291-7.631-8.972 12.031-17.944 24.097-26.916 36.128l2.579 53.315c0 19.525-15.985 35.51-35.51 35.51H142.012c-19.525 0-35.509-15.985-35.509-35.51V87.05c0-19.525 15.984-35.51 35.509-35.51 37.882 0 106.872-.515 115.225 0"/>
  <path fill="#000" stroke="#000" stroke-miterlimit="10" stroke-width=".344" d="M288.22 52.571c2.677-.053 4.841-.343 4.835-.646-.006-.304-2.18-.507-4.857-.453-2.676.053-4.841.343-4.835.646.006.304 2.181.507 4.857.453Z"/>
  <path fill="#000" stroke="#000" stroke-miterlimit="10" stroke-width=".344" d="M281.403 96.331c-.034.035-.172-.137-.344-.447-.103-.137-.206-.343-.343-.55a5.31 5.31 0 0 1-.447-.79c-.653-1.203-1.513-3.025-2.269-5.363-.206-.584-.344-1.203-.55-1.856a34.49 34.49 0 0 1-.481-2.028c-.275-1.41-.55-2.956-.688-4.572-.309-3.231-.275-6.84.206-10.587a57.102 57.102 0 0 1 2.441-10.279c1.031-3.059 2.2-5.775 3.3-7.94 1.1-2.2 2.063-3.919 2.784-5.088.722-1.169 1.169-1.787 1.238-1.753.172.103-1.306 2.716-3.3 7.15a70.796 70.796 0 0 0-3.025 7.94c-.963 3.06-1.822 6.463-2.303 10.107a50.575 50.575 0 0 0-.31 10.347c.104 1.581.344 3.094.585 4.469.137.687.275 1.375.412 1.993.172.653.275 1.272.482 1.822a45.812 45.812 0 0 0 1.89 5.397c.138.31.241.585.344.825.103.24.206.447.275.619.103.378.137.55.103.584Zm16.019-33.412c-.103.103-.722-.447-1.444-1.513-.378-.515-.756-1.203-1.134-1.96-.378-.755-.722-1.65-1.032-2.577-.275-.963-.481-1.856-.584-2.716a18.976 18.976 0 0 1-.137-2.269c.034-1.306.24-2.062.378-2.062.343 0 .309 3.128 1.409 6.737 1.066 3.575 2.819 6.154 2.544 6.36Z"/>
  <path fill="#000" stroke="#000" stroke-miterlimit="10" stroke-width=".344" d="M293.228 50.063c-.069 0-.172-.07-.275-.07h-.172c-.069 0-.103.035-.172.07a1.16 1.16 0 0 0-.275.206 5.043 5.043 0 0 1-.446.31c-.31.205-.654.412-1.032.618-.481.275-.928.481-1.34.653l-.447-.86c.859-.309 1.443-.618 1.581-.446.137.137-.241.79-1.169 1.34l-.447-.859c.378-.24.791-.516 1.272-.79.378-.207.757-.413 1.066-.55.172-.07.344-.138.481-.207.172-.069.344-.137.55-.137.206-.035.413 0 .55.103.138.069.241.206.31.31.137.171.034.309-.035.309Z"/>
  <path fill="#000" stroke="#000" stroke-miterlimit="10" stroke-width=".344" d="M293.091 50.269c.137.275-.31.756-.928 1.1-.619.343-1.238.481-1.41.206-.172-.24.172-.825.859-1.203.688-.378 1.376-.378 1.479-.103Z"/>
  <path fill="#000" stroke="#000" stroke-miterlimit="10" stroke-width=".344" d="M293.297 50.819c.103.103.137.275.069.447a.847.847 0 0 1-.516.447c-.241.068-.516.068-.687-.035a.449.449 0 0 1-.241-.412c0-.172.103-.275.206-.378.103-.104.241-.172.378-.241.138-.035.275-.069.447-.035.069.035.241.104.344.207Zm-.653-1.135c.069.31-.928.791-2.2 1.272-1.272.481-2.338.756-2.475.481-.138-.274.756-1.03 2.097-1.546 1.34-.482 2.509-.516 2.578-.207Z"/>
  <path fill="#000" d="M293.297 22.39c1.512-8.971 9.109-14.334 12.1-16.465 2.544-1.787 6.394-4.537 12.1-5.328 6.978-.963 12.547 1.512 16.706 3.403 2.853 1.272 6.875 3.094 10.691 6.91 5.053 5.087 5.5 9.453 12.718 26.262 4.71 10.931 5.844 9.316 10.004 19.49 5.018 12.238 7.734 18.941 6.222 27.329-1.822 10.175-9.557 21.003-21.107 24.371-3.472 1.032-10.794 3.163-16.225-.55-7.528-5.121-.997-18.562-8.112-41.146a75.734 75.734 0 0 0-2.097-5.878c7.459-5.02 9.006-9.144 9.075-11.963.069-2.956-1.478-4.64-2.269-9.694-.619-4.022-.309-7.39 0-9.487a98.346 98.346 0 0 1-10.931 1.65c-5.363.481-10.244.481-14.472.206.584-3.953-1.238-7.356-3.919-8.25-2.75-.928-5.362 1.1-5.775 1.444-3.815 3.094-1.856 10.037-2.475 10.106-.584.034-3.369-5.706-2.234-12.41ZM133.041 221.8c-.688.997-2.235 2.991-4.95 4.366-3.404 1.684-6.532 1.34-7.563 1.237-.962-.103-5.397-.756-8.697-4.606-1.993-2.303-2.647-4.71-2.956-6.016-.344-1.306-1.616-6.359.825-10.622 1.994-3.506 4.159-2.475 7.975-6.531 4.091-4.331 2.544-6.531 6.016-9.35 1.134-.928 2.131-1.375 12.306-3.437 9.453-1.925 9.212-1.685 11.103-2.338 6.531-2.303 7.562-4.778 11.034-4.297 3.335.447 6.36 3.266 7.357 6.531 1.615 5.225-1.891 11.447-4.607 11.413-.584 0-2.372-.309-4.4-5.431-.859 1.89-2.268 4.606-4.296 7.734-3.816 5.809-5.775 8.8-9.385 10.209-4.434 1.754-7.356-.378-9.591 1.857-1.821 1.822-1.615 4.984-1.134 7.459"/>
  <path fill="#000" stroke="#000" stroke-miterlimit="10" stroke-width=".344" d="M127.609 227.575c-.171-.275 1.1-1.237 2.2-2.716 1.135-1.478 1.719-2.921 2.063-2.853.137.035.172.482.034 1.135a7.18 7.18 0 0 1-1.168 2.372c-.654.825-1.41 1.443-1.994 1.753-.619.343-1.066.412-1.135.309Zm11.413-17.6c.309 0 .55 1.134.584 2.578v1.994l-.997-1.478c-.412-.619-.618-1.238-.618-1.719-.035-.481.068-.756.206-.756.309-.035.619.893 1.341 1.822l-1.032.309v-.206c-.034-1.375.207-2.51.516-2.544ZM306.806 24.9c-.172.069-.412-.688-1.34-1.306a4.816 4.816 0 0 0-1.753-.722c-.688-.138-1.513-.069-2.304.206-.825.24-1.546.653-2.2 1.066a9.43 9.43 0 0 0-1.615 1.272c-.86.79-1.203 1.443-1.375 1.375-.069-.035-.069-.241.034-.585.103-.343.344-.825.756-1.34a9.83 9.83 0 0 1 1.582-1.582 7.652 7.652 0 0 1 2.475-1.306c.962-.31 1.993-.344 2.853-.137a4.426 4.426 0 0 1 2.062 1.134c.482.481.722.962.825 1.34.069.172.069.31.069.413 0 .103-.034.138-.069.172Z"/>
  <path fill="#000" stroke="#000" stroke-miterlimit="10" stroke-width=".344" d="M306.497 25.76c-.241.206-1.135-.55-2.131-1.444-.997-.928-1.822-1.72-1.65-1.994.171-.275 1.306.137 2.406 1.134 1.1 1.032 1.65 2.131 1.375 2.303Zm26.331 17.118c-.137.035-.447-.825-.687-2.234a26.603 26.603 0 0 1-.344-5.603c.034-1.1.137-2.132.309-3.094.172-.963.447-1.788.756-2.475.31-.688.688-1.169.963-1.478.275-.31.481-.413.55-.378.137.103-.378.825-.791 2.13a12.677 12.677 0 0 0-.481 2.338 37.091 37.091 0 0 0-.206 2.991c-.172 4.262.275 7.734-.069 7.803Zm1.547 64.934c-.103.069-1.203-1.993-2.097-5.603-.447-1.787-.79-3.987-1.031-6.428-.206-2.44-.275-5.122-.206-7.94.068-2.82.24-5.466.412-7.872.172-2.406.309-4.572.378-6.428.172-3.644.172-5.913.31-5.913.137 0 .447 2.269.481 5.947 0 1.856-.035 4.022-.138 6.462-.103 2.407-.24 5.088-.309 7.872a96.995 96.995 0 0 0 .103 7.838c.138 2.406.413 4.537.756 6.325.688 3.54 1.513 5.672 1.341 5.74Z"/>
  <path fill="#000" d="M188.591 353.078v10.519c1.34.447 3.162 1.066 5.396 1.65 2.2.584 7.116 1.787 14.026 2.337 5.018.413 10.725.86 11-.24.171-.688-1.754-2.2-11.447-5.844-1.204-.103-2.922-.275-4.916-.688-2.784-.584-4.159-.893-5.156-1.856-1.65-1.684-1.547-4.262-1.41-5.397-2.509-.171-4.984-.343-7.493-.481Z"/>
  <path fill="#000" d="M170.578 350.741c-.206 1.684-.653 4.125-1.65 7.012-.825 2.406-1.375 3.231-.928 3.988.825 1.409 3.85.171 10.278 0 .688 0 .172 0 8.422.24 6.359.172 7.356.172 7.494-.24.24-.86-3.575-3.369-7.941-4.194-3.987-.756-5.912.309-7.941-1.169-1.89-1.375-2.406-3.85-2.578-5.603"/>
  <path fill="#000" stroke="#000" stroke-miterlimit="10" stroke-width=".344" d="M158.478 287.25c-.344.034-.619-7.872-2.956-17.222-2.303-9.384-5.775-16.466-5.466-16.603.138-.069 1.169 1.616 2.475 4.537a41.32 41.32 0 0 1 1.031 2.407c.379.859.688 1.822 1.066 2.818a74.71 74.71 0 0 1 3.3 13.338c.138 1.031.275 2.028.378 2.991.103.928.172 1.821.207 2.612.206 3.163.103 5.122-.035 5.122Zm-9.315-36.816c-.172-.068-.035-.722.034-1.753s.034-2.44-.413-3.918a10.958 10.958 0 0 0-1.718-3.541c-.138-.206-.275-.413-.413-.55-.069-.069-.103-.172-.172-.241a.446.446 0 0 0-.103-.137c-.034-.035-.103-.035-.103 0 0 .034.034.068.069.068.034 0 .068 0 .103-.034 0-.034.034-.069.034-.069 0-.034.035-.034.035-.034h-.035v-.034c0-.035 0-.035-.034-.035-.035-.034-.103-.103-.069-.172.035-.068.138-.103.241-.068.103 0 .206.068.309.137.069.069.172.103.241.172.172.137.378.275.584.481.825.756 1.753 2.097 2.2 3.781a8.62 8.62 0 0 1 .103 4.366c-.344 1.066-.756 1.65-.893 1.581Zm-5.961 32.599c1.017-1.974 1.622-3.688 1.352-3.827-.27-.139-1.313 1.349-2.33 3.324-1.017 1.974-1.623 3.688-1.353 3.827.27.139 1.314-1.349 2.331-3.324Zm192.582-231.63c.069.035-.275.688-.962 1.822a29.508 29.508 0 0 1-3.575 4.4c-1.685 1.719-3.919 3.54-6.635 5.156-.343.206-.687.378-1.065.585-.378.172-.722.412-1.1.584-.756.344-1.513.722-2.338 1.031-.79.344-1.65.585-2.475.894-.412.138-.859.24-1.306.378a4.575 4.575 0 0 1-.653.172c-.241.034-.447.103-.688.138-3.575.79-7.184.928-10.346.275-1.582-.344-3.025-.86-4.297-1.582a12.915 12.915 0 0 1-3.128-2.475 11.27 11.27 0 0 1-1.857-2.715 10.395 10.395 0 0 1-.79-2.338c-.241-1.34-.069-2.097-.035-2.097.103 0 .103.757.447 1.994.172.619.447 1.375.894 2.166a11.5 11.5 0 0 0 1.856 2.44c.791.825 1.822 1.581 2.991 2.2a14.84 14.84 0 0 0 4.056 1.375c2.991.585 6.428.413 9.9-.343.206-.035.447-.104.653-.138.206-.034.413-.103.653-.172.413-.103.86-.206 1.272-.344.825-.275 1.65-.515 2.406-.859.791-.275 1.547-.653 2.269-.963.378-.171.722-.378 1.066-.55.344-.171.687-.343 1.031-.55a34.23 34.23 0 0 0 6.6-4.846c3.472-3.197 4.984-5.775 5.156-5.638Z"/>
  <path fill="#000" stroke="#000" stroke-miterlimit="10" stroke-width=".344" d="M331.144 47.862c-.035.07-.378-.137-.963-.515-.584-.378-1.409-.963-2.509-1.444a6.182 6.182 0 0 0-1.822-.481c-.653-.069-1.375 0-2.131.206-1.478.447-2.922 1.444-4.16 2.785a18.384 18.384 0 0 0-2.99 4.228c-.172.343-.344.721-.516 1.065l-.206.516c-.069.172-.103.275-.241.619a7.82 7.82 0 0 0-.275.825l-.034.103v.034c0 .035 0 .035-.034.035l-.172-.104c-.138-.068-.241-.137-.379-.206-.24-.137-.446-.24-.687-.378-.138-.069-.275-.172-.413-.24-2.165-1.238-3.471-2.063-3.403-2.2.069-.138 1.513.446 3.782 1.512.137.069.275.137.446.206l.069.035.035.034.103.034.103.035.034.034v-.034c0-.07.035-.138.069-.207 0 0 .069-.275.137-.447.069-.171.138-.378.207-.55.137-.378.309-.756.481-1.134a17.053 17.053 0 0 1 3.128-4.537c1.341-1.444 2.991-2.544 4.71-2.991.859-.206 1.718-.275 2.509-.138.79.138 1.478.413 2.062.722 1.169.62 1.925 1.341 2.441 1.822.412.378.653.688.619.756Zm-11.722-6.978c-.138.07-.447-.343-.928-.962a18.84 18.84 0 0 0-.894-1.031 20.043 20.043 0 0 0-1.203-1.1 12.924 12.924 0 0 0-1.341-.894 45.53 45.53 0 0 0-1.203-.619c-.722-.31-1.169-.515-1.169-.653s.55-.24 1.41-.103c.412.069.893.24 1.443.447.516.24 1.066.55 1.582.962.515.413.962.86 1.306 1.306.344.447.619.894.791 1.272.309.791.343 1.341.206 1.375Zm-5.191 1.96c0 .137-.275.275-.687.275-.413 0-1.032-.206-1.513-.653-.515-.447-.79-.997-.859-1.41-.069-.412 0-.687.172-.722.172-.034.343.138.55.413.24.24.515.584.893.894.379.309.722.55.997.721.241.172.447.344.447.482Z"/>
  <path fill="#000" stroke="#000" stroke-miterlimit="10" stroke-width=".344" d="M312.684 42.466c.138.103.103.343-.034.687-.138.344-.447.79-.894 1.135-.447.378-.894.618-1.272.721-.378.103-.618.07-.687-.068-.138-.275.481-.86 1.237-1.513.722-.619 1.375-1.134 1.65-.962Zm14.438 10.793c-.069.138-.413.172-.894 0-.481-.137-1.134-.48-1.719-.996-.584-.516-.996-1.135-1.168-1.582-.207-.481-.207-.825-.104-.893.275-.138.997.756 2.029 1.65.996.893 1.959 1.546 1.856 1.821Zm-2.338-.618c.241.172.035.928-.653 1.547-.687.618-1.444.756-1.581.48-.138-.274.275-.79.859-1.306.55-.515 1.135-.893 1.375-.721Zm-16.328 5.878c.035.137-.412.378-1.168.343a3.799 3.799 0 0 1-2.647-1.306c-.791-.928-.997-2.062-.929-2.819.069-.756.379-1.168.516-1.1.172.035.172.482.275 1.1.103.62.378 1.444.963 2.097.584.688 1.34 1.066 1.959 1.272.584.172.997.24 1.031.413Zm-1.1-26.813c-.068 0-.103-.378-.137-1.065-.069-.653-.138-1.616-.516-2.716-.206-.55-.447-1.1-.825-1.65a5.435 5.435 0 0 0-1.512-1.41c-.619-.377-1.341-.652-2.097-.652-.757-.035-1.547.206-2.269.618-.722.413-1.341.997-1.856 1.616a8.726 8.726 0 0 0-1.238 1.994c-.619 1.375-.893 2.784-.893 3.918a7.25 7.25 0 0 0 .515 2.682c.275.584.481.928.413.962-.035.035-.379-.172-.791-.756-.378-.584-.825-1.547-.928-2.853a9.402 9.402 0 0 1 .722-4.366c.309-.79.756-1.547 1.34-2.303.585-.722 1.307-1.41 2.166-1.925.447-.24.894-.447 1.409-.584.482-.104.997-.207 1.478-.172.997.034 1.891.412 2.613.893.722.482 1.272 1.135 1.719 1.754.412.653.653 1.306.825 1.925a8.522 8.522 0 0 1 .206 2.956c-.137.756-.275 1.134-.344 1.134Zm-28.325 73.769c-.034.034-.24-.069-.653-.309-.206-.104-.447-.275-.756-.447-.138-.103-.31-.172-.481-.31-.172-.103-.344-.24-.516-.343-.378-.275-.791-.55-1.237-.86-.447-.344-.894-.687-1.41-1.1-.516-.378-1.031-.859-1.581-1.306-.55-.481-1.1-.997-1.685-1.547-.584-.55-1.168-1.169-1.787-1.787-.309-.31-.584-.653-.894-.997-.309-.344-.619-.688-.928-1.066-.584-.756-1.237-1.478-1.822-2.303a28.158 28.158 0 0 1-.893-1.237c-.275-.447-.585-.86-.894-1.307-.31-.447-.585-.894-.86-1.375s-.584-.928-.859-1.444c-.275-.48-.55-.996-.825-1.478-.241-.515-.516-1.03-.756-1.546a55.444 55.444 0 0 1-2.647-6.704c-.722-2.371-1.238-4.743-1.616-7.046-.069-.585-.172-1.135-.24-1.72-.069-.584-.104-1.134-.172-1.684-.069-.55-.069-1.1-.103-1.65-.035-.55-.069-1.1-.069-1.615v-1.581c0-.516.034-1.032.034-1.547 0-1.032.138-1.994.206-2.957.035-.48.104-.928.172-1.375.069-.447.103-.893.172-1.34.172-.86.275-1.719.447-2.51.172-.79.309-1.547.516-2.234.206-.688.344-1.375.55-1.994.206-.618.378-1.169.55-1.684.206-.516.378-.997.515-1.41.069-.206.172-.412.241-.584s.172-.344.241-.516c.137-.309.275-.584.378-.79.206-.413.344-.653.378-.619.034.035-.034.275-.172.722-.069.24-.172.516-.275.825-.069.172-.103.344-.172.516-.069.206-.103.378-.172.618-.137.413-.275.894-.447 1.41-.137.515-.309 1.1-.447 1.718-.171.62-.309 1.272-.481 1.96a32.288 32.288 0 0 0-.447 2.234c-.172.79-.24 1.616-.378 2.475-.068.413-.103.86-.137 1.306-.035.447-.103.894-.138 1.376-.034.928-.137 1.89-.137 2.887 0 .481-.035.997-.035 1.512 0 .516.035 1.032.035 1.547 0 .516.034 1.066.069 1.582.034.55.068 1.065.137 1.615s.103 1.1.172 1.65c.069.55.172 1.1.24 1.685a56.583 56.583 0 0 0 1.582 6.875 53.232 53.232 0 0 0 2.543 6.565c.241.516.482 1.032.757 1.513.275.481.515.997.79 1.478.241.481.55.962.825 1.41.275.446.55.927.825 1.374.275.447.585.86.86 1.306.275.413.584.826.859 1.238.55.825 1.169 1.581 1.753 2.303.275.378.585.722.894 1.066.309.344.55.687.859.997.585.618 1.135 1.272 1.719 1.822.55.55 1.1 1.1 1.616 1.581.515.481.997.962 1.512 1.375.482.412.928.79 1.341 1.134.412.344.825.653 1.169.928.172.138.343.275.481.413.172.103.309.24.447.343.275.207.515.379.687.55.378.241.585.413.55.413Zm5.913-5.569c-.035.035-.172-.069-.447-.24a10.2 10.2 0 0 1-.481-.379c-.104-.068-.207-.171-.31-.24l-.309-.31c-.206-.206-.447-.48-.722-.721-.241-.275-.481-.62-.756-.963-.275-.344-.516-.756-.825-1.134-.275-.413-.516-.894-.791-1.34-1.065-1.96-1.959-4.435-2.544-7.288-.309-1.444-.515-2.957-.653-4.504a73.764 73.764 0 0 1-.24-4.88c-.035-1.685 0-3.3.103-4.882.068-1.581.24-3.094.412-4.538.172-1.443.447-2.784.722-4.056.275-1.272.584-2.406.928-3.472a32.03 32.03 0 0 1 1.925-4.812c.55-1.1.928-1.65.997-1.616.172.069-1.065 2.475-2.165 6.635a52.04 52.04 0 0 0-.791 3.437c-.206 1.238-.447 2.578-.584 3.988a57.76 57.76 0 0 0-.344 4.468 73.932 73.932 0 0 0-.069 4.813c.034 1.65.069 3.231.206 4.778.138 1.547.344 3.025.585 4.4.55 2.784 1.306 5.225 2.268 7.15.241.481.447.928.722 1.34.241.413.481.826.722 1.17.241.343.481.687.688.962.24.275.447.55.618.79.104.104.172.241.275.344.104.103.172.207.241.275.172.172.275.31.378.447.172.206.275.344.241.378Zm-.31-.103c.172.275-1.031 1.306-2.303 2.681s-2.2 2.647-2.509 2.51c-.138-.069-.069-.482.206-1.1.275-.619.791-1.41 1.478-2.132.688-.756 1.444-1.306 2.028-1.615.585-.344.997-.447 1.1-.344Zm9.935 25.128c0 .035-.069.103-.241.138l-.309.103c-.138.034-.275.034-.447.069-.688.068-1.753-.069-2.888-.585-1.134-.515-2.337-1.409-3.472-2.578-1.134-1.169-2.2-2.544-3.265-4.056-2.097-3.059-3.61-6.016-4.641-8.181-1.031-2.166-1.547-3.575-1.409-3.644.137-.069.928 1.203 2.131 3.265 1.203 2.063 2.819 4.95 4.847 7.941a53.108 53.108 0 0 0 3.094 4.022c1.031 1.134 2.097 2.028 3.093 2.578.997.55 1.891.791 2.544.86.172 0 .31.034.413.034h.309c.138 0 .241 0 .241.034Zm7.631-2.544c.034.069-.138.241-.55.413-.378.206-1.031.378-1.822.378-.791.035-1.719-.103-2.716-.447a13.748 13.748 0 0 1-2.99-1.409c-3.953-2.372-6.566-5.088-6.359-5.294.206-.241 3.093 2.028 6.909 4.331 1.89 1.135 3.747 1.891 5.122 1.994 1.444.206 2.337-.137 2.406.034Z"/>
  <path fill="#000" stroke="#000" stroke-miterlimit="10" stroke-width=".344" d="M303.369 122.628c0 .069-.207.172-.619.172-.413.034-1.031-.034-1.719-.275-.687-.241-1.478-.619-2.303-1.1-.791-.516-1.65-1.066-2.509-1.684-3.507-2.441-6.222-4.641-6.016-4.882.206-.24 3.163 1.513 6.669 3.954a65.693 65.693 0 0 1 2.44 1.753c.757.515 1.41.962 2.029 1.237 1.134.619 2.028.653 2.028.825Zm-4.208-3.744c2.533 2.092 4.742 3.597 4.936 3.363.193-.234-1.703-2.12-4.236-4.211-2.532-2.091-4.742-3.596-4.935-3.362-.194.234 1.702 2.119 4.235 4.21Z"/>
  <path fill="#000" stroke="#000" stroke-miterlimit="10" stroke-width=".344" d="M304.709 117.85c-.137.103-.687-.619-1.856-1.513-.584-.446-1.306-.893-2.131-1.409-.825-.516-1.753-1.1-2.681-1.822-1.857-1.478-3.128-3.231-3.816-4.572-.687-1.375-.894-2.303-.756-2.372.137-.068.584.757 1.409 1.96a19.428 19.428 0 0 0 3.816 4.125c.859.687 1.753 1.272 2.578 1.822.825.584 1.547 1.134 2.062 1.684 1.169 1.1 1.513 2.063 1.375 2.097Zm.104.55c0 .069-.138.206-.447.275-.31.103-.791.137-1.341.034a7.83 7.83 0 0 1-1.856-.618c-.653-.31-1.306-.688-2.028-1.066-2.819-1.616-4.847-3.266-4.675-3.541.172-.275 2.475.963 5.225 2.578.687.413 1.34.791 1.925 1.135.584.344 1.1.619 1.581.79.928.344 1.581.275 1.616.413Zm-5.191-15.916c-.034.172-.859.069-2.2.138-.688.034-1.478.034-2.372.069a22.53 22.53 0 0 1-2.991-.069c-.55-.069-1.065-.138-1.546-.275-.516-.138-.997-.31-1.41-.481-.859-.344-1.547-.688-2.165-.86-.619-.172-1.101-.24-1.444-.206-.172 0-.31.034-.413.034-.103 0-.172 0-.172-.034s0-.103.104-.172c.068-.069.206-.172.412-.241.378-.171.997-.275 1.719-.137.722.103 1.512.378 2.337.687.825.31 1.719.482 2.716.585.997.103 1.959.103 2.853.137.894.035 1.719.069 2.406.172 1.375.138 2.2.516 2.166.653Zm.103 1.066c.069 0 .137.103.137.275 0 .172-.034.412-.206.687-.309.55-1.065.997-1.925 1.169-.825.138-1.512.069-1.959.069-.481-.034-.791-.034-.859-.172-.069-.137.171-.412.721-.619.516-.206 1.238-.275 1.925-.378.654-.103 1.203-.344 1.513-.584.309-.206.481-.481.653-.447Zm-5.706 21.037c-.103.138-.481.035-1.066-.309-.55-.344-1.272-.928-1.925-1.684a8.137 8.137 0 0 1-1.306-2.2c-.241-.619-.241-1.032-.103-1.1.309-.138 1.1 1.168 2.269 2.612 1.203 1.375 2.337 2.406 2.131 2.681Zm-2.785-114.468c0 .069-1.1.31-3.093.756a159.936 159.936 0 0 0-8.388 1.994c-1.753.447-3.678 1.031-5.706 1.65-2.028.653-4.194 1.375-6.428 2.234a98.897 98.897 0 0 0-14.094 6.634c-2.406 1.375-4.675 2.854-6.806 4.332-2.131 1.478-4.091 3.06-5.947 4.606-.447.378-.894.79-1.341 1.169-.447.378-.859.79-1.272 1.169-.859.756-1.615 1.546-2.371 2.303-.722.756-1.444 1.512-2.097 2.234-.654.756-1.307 1.444-1.857 2.131-.584.688-1.134 1.34-1.615 2.028-.481.654-.997 1.238-1.375 1.857-.413.584-.825 1.134-1.169 1.65-.344.515-.653.996-.928 1.409-.138.206-.275.413-.413.584-.137.207-.24.378-.343.55-.207.344-.379.62-.55.825-.31.447-.482.688-.516.654-.034-.035.069-.276.309-.757.138-.24.275-.55.447-.894.103-.171.207-.378.31-.55.103-.206.24-.412.378-.618.275-.447.55-.928.859-1.478.344-.516.722-1.1 1.1-1.685.378-.618.86-1.237 1.341-1.925.481-.687 1.031-1.34 1.581-2.097.55-.721 1.203-1.443 1.822-2.234.653-.756 1.375-1.512 2.097-2.303.756-.756 1.512-1.581 2.372-2.372.412-.378.825-.79 1.272-1.203.446-.378.893-.79 1.34-1.203 1.822-1.581 3.816-3.197 5.981-4.71 2.166-1.512 4.435-3.025 6.875-4.4 4.847-2.784 9.729-4.95 14.3-6.634 2.269-.86 4.469-1.547 6.532-2.166 2.062-.584 3.987-1.1 5.775-1.546 3.575-.825 6.462-1.375 8.49-1.65 1.994-.31 3.128-.413 3.128-.344Zm-2.509 30.284c-.137.035-.756-1.615-1.272-4.434-.55-2.785-.962-6.772-.687-11.138.068-1.1.171-2.165.275-3.162.137-1.032.309-2.028.584-2.957.275-.928.619-1.787 1.066-2.578.446-.756.962-1.409 1.546-1.89 1.1-.997 2.304-1.444 3.129-1.547.825-.103 1.272.034 1.272.103 0 .103-.447.103-1.169.31-.722.206-1.719.721-2.681 1.684-.963.962-1.719 2.406-2.132 4.16-.447 1.752-.618 3.78-.722 5.912-.24 4.262.035 8.147.344 10.93.275 2.854.619 4.573.447 4.607Z"/>
  <path fill="#000" stroke="#000" stroke-miterlimit="10" stroke-width=".344" d="M296.15 15c.137.103-.584 1.306-1.478 3.369-.103.275-.206.515-.344.825-.103.275-.206.584-.309.893-.241.62-.413 1.307-.653 1.994a41.308 41.308 0 0 0-.963 4.744c-.447 3.403-.447 6.531-.412 8.8.034 2.269.103 3.678-.069 3.712-.138.035-.481-1.375-.722-3.643-.241-2.269-.378-5.5.103-9.007a32.028 32.028 0 0 1 1.066-4.88c.24-.723.481-1.41.756-2.029.138-.31.275-.619.378-.894l.413-.825c.24-.515.55-.962.79-1.34.138-.207.241-.378.344-.55.137-.172.241-.31.344-.413.447-.515.687-.79.756-.756ZM163.703 213.722c-.034-.069.241-.31.791-.756.275-.207.584-.482.962-.791.172-.172.378-.309.585-.516.206-.172.446-.378.618-.55.172-.206.31-.412.31-.55 0-.137-.103-.343-.344-.584-.447-.481-1.066-.894-1.719-1.341-.687-.447-1.443-.893-2.165-1.547-.722-.653-1.272-1.512-1.685-2.406-.412-.894-.687-1.822-.928-2.681-.206-.859-.412-1.684-.619-2.475-.206-.791-.412-1.478-.687-2.131-.275-.653-.55-1.238-.86-1.753a17.132 17.132 0 0 0-1.615-2.372c-.413-.55-.653-.825-.619-.894.034-.069.378.137.928.584.516.447 1.238 1.203 1.96 2.235.343.515.722 1.134 1.031 1.822.309.687.584 1.443.825 2.234.24.791.447 1.616.687 2.475.241.825.482 1.684.86 2.509.378.791.825 1.513 1.443 2.063.585.55 1.307.997 1.96 1.478.687.481 1.341.962 1.856 1.581.138.138.275.31.378.516.103.206.172.481.138.722a1.633 1.633 0 0 1-.619 1.065c-.275.241-.516.378-.722.55-.241.172-.447.31-.653.447-.413.275-.791.481-1.1.653-.584.344-.963.482-.997.413Z"/>
  <path fill="#000" stroke="#000" stroke-miterlimit="10" stroke-width=".344" d="M164.047 213.447c.069-.035.309.584.619 1.684.309 1.1.687 2.75.928 4.778.137 1.032.24 2.166.275 3.369.034 1.203.034 2.578-.378 3.953a8.285 8.285 0 0 1-.928 2.028c-.413.619-.963 1.203-1.547 1.719-1.169 1.031-2.613 1.753-4.091 2.338-1.513.55-2.991.928-4.4 1.34-1.409.413-2.716.825-3.884 1.41a11.421 11.421 0 0 0-2.991 2.131 13.216 13.216 0 0 0-2.028 2.509 14.142 14.142 0 0 0-1.753 4.366c-.241 1.1-.275 1.753-.378 1.719-.069 0-.172-.654-.069-1.788.103-1.169.481-2.853 1.512-4.709a13.4 13.4 0 0 1 2.063-2.75c.859-.894 1.959-1.719 3.197-2.372 1.237-.653 2.612-1.135 4.056-1.547 1.409-.413 2.888-.791 4.297-1.341 1.409-.55 2.716-1.237 3.781-2.131 1.066-.894 1.822-1.994 2.2-3.197.378-1.203.447-2.475.413-3.644 0-1.203-.069-2.303-.138-3.299-.309-4.057-.928-6.497-.756-6.566Z"/>
  <path fill="#000" stroke="#000" stroke-miterlimit="10" stroke-width=".344" d="M165.181 217.434c.138.069.035.482-.344 1.032-.378.55-1.031 1.203-1.924 1.684-.894.481-1.788.688-2.441.688-.653 0-1.066-.138-1.066-.275 0-.31 1.444-.55 2.991-1.41 1.547-.79 2.509-1.89 2.784-1.719Zm-11.79-11.446c-.138.034-.378-.379-.447-1.135s.103-1.822.687-2.853c.31-.516.653-.928 1.032-1.272.171-.172.378-.309.584-.447.103-.068.206-.103.275-.172a1.23 1.23 0 0 1 .309-.137c.378-.138.825-.138 1.032.034.206.172.206.344.171.378-.034.069-.137 0-.309.035-.137.034-.309.103-.55.275-.069.034-.103.069-.172.137-.069.069-.137.138-.206.172-.138.138-.275.275-.413.447-.275.309-.55.688-.79 1.1-.481.825-.722 1.684-.86 2.338-.137.653-.171 1.065-.343 1.1Zm4.778 2.578c-.31-.103-.275-1.032-.481-2.132-.172-1.065-.551-1.959-.31-2.131.138-.103.378.035.688.378.309.344.584.894.722 1.582a3.405 3.405 0 0 1-.104 1.718c-.171.413-.378.619-.515.585Zm-3.504 5.049c.198.067.437-.113.533-.401.097-.288.014-.576-.184-.642-.198-.066-.437.114-.533.402-.096.288-.014.575.184.641Zm4.466-.374c.069.137.069.309 0 .412-.068.138-.24.206-.447.172a.487.487 0 0 1-.378-.344c-.034-.172.035-.309.138-.447.069-.103.172-.137.24-.206.069-.069.103-.103.138-.103.034 0 .034.069.103.172.069.103.138.206.206.344Zm-2.445 4.758c.186-.19.161-.516-.056-.729-.216-.212-.543-.231-.729-.041-.186.19-.161.516.055.729.217.212.544.231.73.041Zm-16.874 2.838c.069.035.035.379-.275.86-.309.481-.996 1.134-2.062 1.409a3.88 3.88 0 0 1-1.788.035c-.653-.138-1.271-.447-1.856-.86-.584-.447-1.065-1.031-1.444-1.719a6.492 6.492 0 0 1-.721-2.268 7.516 7.516 0 0 1 .068-2.338c.138-.756.31-1.444.585-2.097.55-1.306 1.512-2.337 2.578-2.681 1.065-.378 1.994-.172 2.509.138.516.309.653.653.619.687-.069.069-.309-.137-.791-.275-.481-.137-1.237-.172-2.028.172-.79.344-1.512 1.203-1.925 2.337-.412 1.135-.653 2.544-.481 3.919.069.688.275 1.341.584 1.891.31.55.688 1.065 1.135 1.409.447.378.928.653 1.443.756.482.138.963.138 1.41.069a3.594 3.594 0 0 0 1.89-.928c.31-.275.447-.55.55-.516Zm-19.971 22.172c-.069-.034-.069-.206-.035-.447 0-.24.069-.584 0-.996a12.739 12.739 0 0 0-.344-1.513c-.171-.584-.378-1.237-.515-2.028a4.448 4.448 0 0 1-.035-1.169c.035-.206.069-.378.104-.584.034-.172.103-.344.171-.516.31-.653.722-1.1 1.1-1.444.757-.653 1.307-.893 1.375-.79.104.103-.275.584-.79 1.306-.275.378-.55.791-.722 1.306-.172.482-.206 1.066-.103 1.719s.275 1.306.412 1.925c.138.619.207 1.238.138 1.753-.035.516-.241.928-.378 1.169-.172.275-.31.344-.378.309Zm25.162 7.425c-.034.138-1.616-.137-4.022-1.031-.309-.103-.619-.241-.928-.378-.309-.138-.653-.275-.997-.447-.687-.309-1.409-.687-2.165-1.066a43.413 43.413 0 0 1-4.641-2.99c-1.547-1.203-2.956-2.441-4.125-3.678-.584-.619-1.134-1.203-1.616-1.788-.24-.275-.481-.55-.687-.859-.206-.275-.413-.55-.619-.791-1.512-2.062-2.2-3.506-2.097-3.575.138-.103 1.066 1.169 2.716 3.094.206.241.412.481.653.756.241.241.481.516.722.791.481.55 1.065 1.1 1.65 1.684a54.91 54.91 0 0 0 4.09 3.506c1.513 1.135 3.06 2.132 4.469 2.991.722.413 1.41.791 2.063 1.134.343.172.653.344.962.482.31.137.619.275.894.412 2.234 1.031 3.712 1.581 3.678 1.753Zm-32.897 89.307c-.034 0-.206-.31-.481-.929a90.804 90.804 0 0 0-.516-1.134l-.309-.722c-.103-.275-.206-.55-.344-.859-.24-.585-.481-1.272-.79-1.994-.275-.722-.55-1.547-.86-2.406-.309-.86-.584-1.822-.894-2.785-.309-.996-.584-2.062-.893-3.162-.31-1.1-.585-2.303-.894-3.506-.172-.619-.275-1.238-.413-1.891l-.412-1.959c-.241-1.341-.516-2.716-.722-4.16l-.309-2.165c-.103-.757-.172-1.478-.275-2.235-.31-3.025-.585-6.256-.653-9.556-.069-3.334 0-6.772.206-10.278.24-3.506.653-6.944 1.169-10.244.515-3.3 1.203-6.428 1.925-9.384.206-.756.378-1.478.584-2.2.206-.722.412-1.41.619-2.131.378-1.41.859-2.716 1.272-4.022.206-.653.446-1.272.653-1.891.24-.619.412-1.237.653-1.822.481-1.169.894-2.303 1.34-3.369.447-1.065.86-2.062 1.341-3.025.447-.928.825-1.821 1.272-2.646.412-.825.791-1.582 1.169-2.269.378-.688.722-1.306 1.031-1.891.172-.275.309-.55.447-.79.137-.241.275-.482.412-.688.275-.412.482-.791.653-1.066.379-.584.585-.859.619-.859.035.034-.103.344-.412.963-.138.309-.344.687-.55 1.1-.103.206-.241.446-.378.721a9.304 9.304 0 0 0-.413.825 49.094 49.094 0 0 1-.962 1.925c-.344.722-.688 1.479-1.066 2.304-.413.825-.756 1.718-1.169 2.681a68.112 68.112 0 0 0-1.237 3.025c-.447 1.065-.825 2.2-1.272 3.369-.241.584-.413 1.203-.619 1.821-.206.619-.412 1.238-.619 1.891-.378 1.306-.825 2.613-1.203 3.988-.206.687-.378 1.375-.584 2.096a50.52 50.52 0 0 1-.55 2.166c-.688 2.956-1.341 6.05-1.856 9.316a115.665 115.665 0 0 0-1.135 10.14c-.24 3.472-.275 6.91-.24 10.21.034 3.3.275 6.462.584 9.487.069.756.172 1.513.241 2.235l.309 2.165c.172 1.41.447 2.785.653 4.125.103.653.241 1.306.378 1.96.138.653.241 1.271.378 1.89.275 1.203.516 2.406.825 3.506.275 1.1.55 2.166.825 3.163.275.997.516 1.925.825 2.819.275.859.516 1.684.757 2.44.24.757.481 1.41.687 2.028.103.31.206.585.275.86.103.275.172.515.275.756.172.481.309.859.413 1.169.206.55.275.894.24.894Zm50.188-58.713c-.344.034-.722-6.325-2.853-13.819-2.063-7.493-5.019-13.131-4.71-13.303.138-.069 1.031 1.272 2.2 3.575.275.585.585 1.203.894 1.925.309.688.619 1.444.928 2.235a50.052 50.052 0 0 1 1.753 5.293 54.063 54.063 0 0 1 1.203 5.432c.138.859.275 1.65.344 2.406.103.756.172 1.444.206 2.097.241 2.578.172 4.159.035 4.159Zm-19.972-28.187c0 .137-1.272.24-3.266 0-.24-.035-.515-.069-.79-.104-.275-.034-.55-.103-.86-.171-.584-.104-1.203-.275-1.856-.447-1.272-.378-2.681-.86-4.091-1.513a29.633 29.633 0 0 1-3.781-2.131 19.073 19.073 0 0 1-1.512-1.134 5.09 5.09 0 0 1-.654-.55 8.991 8.991 0 0 1-.584-.516c-1.478-1.375-2.234-2.372-2.131-2.475.137-.103 1.065.687 2.612 1.856.207.138.413.31.619.447.206.172.447.309.688.481.481.344.996.653 1.546.997 1.1.688 2.338 1.375 3.713 1.994a38.469 38.469 0 0 0 3.919 1.547c.618.172 1.203.378 1.753.515.275.069.55.172.79.207.275.068.516.137.757.172 1.89.446 3.128.653 3.128.825Z"/>
  <path fill="#000" stroke="#000" stroke-miterlimit="10" stroke-width=".344" d="M119.978 339.053c-.069.034-.447-1.169-.997-3.334-.137-.55-.309-1.135-.481-1.788a45.34 45.34 0 0 0-.516-2.165c-.171-.791-.378-1.616-.55-2.475-.171-.894-.378-1.822-.55-2.785-1.546-7.837-3.128-18.872-2.921-31.109 0-.756.034-1.513.034-2.269l.103-2.234c.034-.757.069-1.478.138-2.2.034-.378.034-.722.068-1.1.035-.378.069-.722.103-1.066.138-1.444.275-2.853.413-4.228.206-1.375.378-2.716.584-4.022.035-.344.103-.653.138-.962.069-.31.137-.654.172-.963.137-.619.24-1.272.378-1.891.103-.618.24-1.237.344-1.821.103-.585.275-1.169.412-1.753.275-1.135.55-2.235.825-3.301.309-1.065.619-2.062.894-3.025.137-.481.275-.962.412-1.409.069-.24.138-.447.207-.687.068-.207.171-.447.24-.654.31-.859.585-1.65.86-2.406.275-.756.515-1.444.79-2.062.275-.619.516-1.203.825-1.719.55-.997 1.238-1.65 1.753-1.959.516-.31.86-.344.86-.344.034.034-.275.172-.722.515-.447.344-1.031.997-1.513 1.96-.24.481-.481 1.066-.687 1.684-.206.653-.447 1.341-.688 2.097-.24.756-.515 1.547-.79 2.406-.069.207-.138.413-.207.654a4.036 4.036 0 0 0-.171.687c-.138.447-.241.928-.379 1.409-.275.963-.55 1.96-.825 3.025-.24 1.066-.481 2.166-.756 3.3-.137.585-.275 1.135-.378 1.753-.103.585-.206 1.204-.309 1.822a35.57 35.57 0 0 1-.344 1.857c-.069.309-.103.618-.172.962-.069.309-.103.653-.137.963-.172 1.306-.344 2.647-.55 3.987-.138 1.375-.275 2.784-.413 4.194l-.103 1.066c-.034.343-.034.721-.069 1.1-.034.721-.069 1.443-.103 2.199-.034.722-.103 1.479-.103 2.235 0 .756-.034 1.512-.034 2.269-.207 12.134 1.237 23.1 2.578 30.937.172.997.309 1.925.481 2.819.172.894.344 1.719.481 2.475.138.79.275 1.512.413 2.165.137.654.275 1.272.378 1.822.447 2.132.653 3.335.584 3.369Zm19.353 6.119c0 .137-1.065.344-2.818.481-1.754.138-4.194.206-6.875-.206-2.682-.413-5.019-1.341-6.532-2.338-1.512-.962-2.2-1.856-2.097-1.959.104-.137.963.516 2.51 1.272 1.512.756 3.747 1.512 6.29 1.925 2.579.378 4.95.447 6.669.515 1.753.035 2.853.138 2.853.31Z"/>
  <path fill="#000" stroke="#000" stroke-miterlimit="10" stroke-width=".344" d="M138.266 345.206c-.069 0-.241-.894-.482-2.544a44.549 44.549 0 0 1-.206-1.375c-.069-.515-.103-1.065-.172-1.649-.103-1.169-.275-2.544-.378-4.022-.069-.757-.103-1.547-.172-2.338-.068-.825-.068-1.65-.137-2.544-.103-1.753-.103-3.643-.172-5.637a170.57 170.57 0 0 1 .378-12.891c.309-4.572.825-8.903 1.409-12.822.31-1.959.585-3.815.929-5.534.171-.859.309-1.719.481-2.509.172-.791.344-1.582.481-2.303.309-1.479.653-2.785.928-3.919.138-.585.275-1.1.413-1.616.137-.481.275-.928.378-1.34.481-1.616.756-2.475.825-2.475.069 0-.069.928-.413 2.578-.068.412-.172.859-.275 1.375a69.44 69.44 0 0 0-.309 1.615c-.206 1.169-.516 2.475-.756 3.953-.138.722-.275 1.513-.413 2.304-.137.79-.275 1.65-.412 2.509-.31 1.719-.55 3.575-.825 5.534a233.761 233.761 0 0 0-1.307 12.753 217.661 217.661 0 0 0-.481 12.822c0 1.96 0 3.85.069 5.603.034.86.034 1.719.069 2.544.034.825.068 1.581.103 2.338.034 1.478.137 2.853.206 4.022.034.584.069 1.134.103 1.649.035.516.069.963.103 1.375.069 1.582.103 2.51.035 2.544ZM125.1 355.553c-.309 0-.516-2.681-.687-5.947-.172-3.265-.241-5.947.068-5.981.31-.034.86 2.613 1.032 5.947.171 3.3-.138 5.981-.413 5.981Zm10.622 2.75c-.309.069-1.031-2.715-1.306-6.256-.275-3.506 0-6.394.309-6.359.309 0 .55 2.818.825 6.29.241 3.438.481 6.256.172 6.325Zm7.666 8.113c-.275.172-1.754-1.891-3.954-4.022-2.2-2.166-4.262-3.61-4.125-3.885.069-.137.722.069 1.616.585.928.515 2.097 1.375 3.266 2.509 1.134 1.135 2.028 2.303 2.543 3.231.585.86.791 1.479.654 1.582Zm-18.804-10.038c.104.309-4.434 2.097-10.106 4.022-1.409.481-2.784.928-4.022 1.306-.618.206-1.203.378-1.684.585-.516.206-.928.447-1.238.756a2.717 2.717 0 0 0-.653.928 1.606 1.606 0 0 0-.137.859c.034.482.206.757.137.791-.034.034-.103 0-.24-.103-.103-.103-.241-.309-.344-.619a1.953 1.953 0 0 1-.034-1.1c.103-.412.309-.894.687-1.34a4.811 4.811 0 0 1 1.409-1.032c.55-.275 1.135-.481 1.754-.722 1.203-.447 2.578-.928 3.987-1.409 5.672-1.891 10.381-3.197 10.484-2.922Z"/>
  <path fill="#000" stroke="#000" stroke-miterlimit="10" stroke-width=".344" d="M122.35 360.709c.034.31-3.884 1.1-8.525 2.75a53.8 53.8 0 0 0-3.231 1.238c-.482.206-.963.378-1.375.584a5.075 5.075 0 0 0-1.066.585c-.55.412-.791.996-.825 1.375-.034.412.069.618 0 .687-.034.034-.103 0-.206-.103s-.206-.275-.241-.55a2.244 2.244 0 0 1 .069-.928c.103-.344.344-.756.653-1.066.309-.343.722-.619 1.169-.825.447-.24.894-.447 1.409-.687.997-.447 2.097-.928 3.266-1.341 2.372-.859 4.606-1.34 6.222-1.616 1.65-.24 2.647-.24 2.681-.103Zm-1.169 2.407c.069.309-3.197 1.306-7.012 2.956-.482.206-.928.412-1.375.619-.447.206-.86.412-1.238.618a8.096 8.096 0 0 0-1.822 1.341c-.893.928-.893 1.822-1.065 1.822-.035 0-.069-.069-.103-.172 0-.069-.035-.137-.035-.206v-.275c0-.413.172-1.031.619-1.65.412-.619 1.1-1.238 1.891-1.753a9.615 9.615 0 0 1 1.306-.722c.447-.241.928-.447 1.409-.653 3.919-1.685 7.391-2.2 7.425-1.925Zm2.131 2.337c.104.275-2.612 1.616-6.05 2.922-.859.344-1.684.619-2.44.894-.378.137-.756.24-1.066.343-.309.104-.584.207-.79.344-.104.069-.172.138-.241.206-.069.069-.103.138-.138.207a.701.701 0 0 0-.034.447c.034.24.206.378.172.447 0 .034-.069.068-.172.034a.609.609 0 0 1-.378-.31c-.138-.171-.206-.446-.172-.756 0-.172.069-.309.138-.481.068-.172.206-.309.343-.447.275-.275.619-.447.963-.584.344-.138.687-.31 1.065-.447.722-.31 1.547-.653 2.407-.963 3.368-1.306 6.256-2.131 6.393-1.856Zm15.297.034c-.034.172-1.34.035-3.403-.206-.515-.069-1.1-.103-1.684-.172-.619-.068-1.238-.137-1.891-.103-.653 0-1.272.138-1.925.413-.653.24-1.34.619-2.028.997-5.637 3.025-10.347 5.259-10.484 4.984-.138-.275 4.297-2.956 9.968-5.981.722-.378 1.41-.756 2.166-1.031.756-.275 1.581-.447 2.303-.413.756 0 1.41.103 2.028.206.619.103 1.169.206 1.685.31 2.062.446 3.3.859 3.265.996Zm71.053-24.509c-.034 0 .069-.55.275-1.581.207-1.031.55-2.509.963-4.469a201.914 201.914 0 0 0 2.784-16.5c.447-3.506.86-7.356 1.066-11.481.206-4.125.206-8.594-.481-13.166-.688-4.572-2.063-9.315-4.675-13.612-1.307-2.131-2.853-4.194-4.71-5.947-1.856-1.788-3.987-3.335-6.359-4.469-.275-.172-.619-.275-.894-.378-.309-.138-.619-.241-.894-.378l-.928-.31a9.225 9.225 0 0 0-.928-.274 24.425 24.425 0 0 0-3.815-.619c-2.544-.172-5.122.137-7.529.79-4.846 1.272-9.109 3.816-12.684 6.704-3.609 2.921-6.669 6.153-9.384 9.246a104.132 104.132 0 0 0-7.047 9.11 104.71 104.71 0 0 0-5.053 8.078 91.038 91.038 0 0 0-1.857 3.437c-.55 1.066-1.031 2.063-1.478 2.957-.206.447-.412.859-.618 1.272-.172.412-.344.756-.516 1.134-.309.687-.584 1.272-.791 1.753-.412.962-.653 1.444-.687 1.444-.035 0 .137-.55.481-1.513.172-.481.413-1.1.688-1.787.137-.344.309-.722.446-1.135.172-.412.379-.825.55-1.271.379-.929.86-1.891 1.375-2.991.55-1.066 1.1-2.269 1.788-3.506a98.3 98.3 0 0 1 4.95-8.216c1.959-2.956 4.297-6.084 7.012-9.281 2.716-3.163 5.775-6.463 9.454-9.453 1.821-1.479 3.815-2.888 6.015-4.091 2.166-1.203 4.538-2.2 7.047-2.853 2.509-.653 5.156-.997 7.872-.825 1.341.069 2.681.275 4.022.619.344.068.653.171.997.275l.997.309c.309.137.653.275.962.378.309.138.653.241.963.413 2.509 1.203 4.743 2.818 6.668 4.675 1.925 1.856 3.541 3.987 4.882 6.187a32.998 32.998 0 0 1 3.128 6.944 44.594 44.594 0 0 1 1.615 7.081c.688 4.675.654 9.178.413 13.372-.241 4.194-.722 8.044-1.203 11.55-.997 7.013-2.2 12.65-3.163 16.5-.481 1.925-.894 3.403-1.169 4.4-.343.962-.515 1.513-.55 1.478Z"/>
  <path fill="#000" stroke="#000" stroke-miterlimit="10" stroke-width=".344" d="M190.894 302.547c.068.034-.413.997-1.307 2.716a133.25 133.25 0 0 1-4.193 7.046c-3.747 5.81-9.385 13.579-16.672 21.244a164.399 164.399 0 0 1-5.431 5.466c-1.822 1.718-3.575 3.334-5.363 4.812-3.54 2.922-7.012 5.26-10.209 6.703a25.734 25.734 0 0 1-7.906 2.338 48.07 48.07 0 0 0-1.272.103h-.963c-.515 0-.79-.034-.79-.069 0-.034.274-.103.756-.137.24-.035.55-.069.928-.103.378-.069.79-.138 1.272-.207 1.89-.343 4.572-1.065 7.631-2.612 3.059-1.513 6.428-3.85 9.866-6.772a129.764 129.764 0 0 0 5.259-4.812 134.803 134.803 0 0 0 5.362-5.466c7.219-7.631 12.926-15.263 16.81-20.935 1.959-2.818 3.437-5.19 4.503-6.806 1.031-1.684 1.65-2.578 1.719-2.509Z"/>
  <path fill="#000" stroke="#000" stroke-miterlimit="10" stroke-width=".344" d="M178.45 350.5c-.172-.069.55-2.303 1.616-5.947.275-.928.55-1.925.859-2.991.309-1.065.584-2.234.894-3.437a141.29 141.29 0 0 0 1.787-7.975c.55-2.853 1.032-5.569 1.375-8.044.172-1.237.344-2.406.481-3.54.138-1.1.276-2.132.379-3.094.412-3.781.618-6.119.79-6.119.138 0 .241 2.372 0 6.188-.068.962-.137 1.993-.24 3.128-.104 1.134-.241 2.303-.378 3.575-.31 2.509-.757 5.259-1.307 8.112a139.422 139.422 0 0 1-1.89 8.01 108.881 108.881 0 0 1-1.032 3.437c-.343 1.066-.653 2.063-.996 2.956-1.238 3.644-2.2 5.775-2.338 5.741Zm30.009-1.478c.069.103-1.237 1.306-3.781 2.544a25.91 25.91 0 0 1-4.675 1.718c-1.822.482-3.85.825-6.016.997-4.296.31-8.215-.103-10.965-.515-2.784-.413-4.469-.86-4.435-.997.035-.172 1.754-.035 4.538.206 2.784.206 6.6.481 10.794.206a40.891 40.891 0 0 0 5.844-.894 31.982 31.982 0 0 0 4.606-1.443c2.543-1.032 3.987-1.994 4.09-1.822Zm-44.034.344c-.309-.069.516-3.954 1.856-8.629.344-1.168.653-2.268.963-3.3.309-.996.584-1.924.894-2.681.309-.756.618-1.34.893-1.718.275-.379.481-.551.55-.482.138.103-.309.963-.687 2.475-.172.756-.413 1.685-.653 2.716-.275 1.031-.55 2.131-.894 3.3-1.306 4.64-2.613 8.387-2.922 8.319Zm11.894 1.959c0 .309-2.613.619-5.81.103-3.197-.516-5.603-1.65-5.5-1.925.103-.309 2.578.344 5.672.825s5.638.688 5.638.997Zm-51.769.619c-.069.137-.688.034-1.65-.344a15.147 15.147 0 0 1-3.506-1.994c-1.272-.962-2.269-1.994-2.888-2.819-.618-.825-.894-1.409-.79-1.512.275-.206 1.925 1.65 4.331 3.438 2.406 1.856 4.641 2.921 4.503 3.231Z"/>
  <path fill="#000" stroke="#000" stroke-miterlimit="10" stroke-width=".344" d="M121.113 342.216c.103.103 0 .481-.379.962a5.306 5.306 0 0 1-1.856 1.478c-.825.413-1.684.619-2.269.619-.618 0-.996-.103-.996-.275 0-.309 1.34-.619 2.784-1.341 1.444-.722 2.475-1.65 2.716-1.443Zm18.012-15.847c-.275-.172 1.237-3.025 2.544-6.738 1.34-3.712 1.959-6.875 2.269-6.84.137.034.171.859 0 2.165a24.554 24.554 0 0 1-1.238 5.019c-.688 1.925-1.512 3.575-2.2 4.675-.722 1.169-1.272 1.787-1.375 1.719Zm71.672-96.113c.034.069-.859.378-2.441.825a179.925 179.925 0 0 1-6.737 1.753c-5.707 1.41-13.647 3.163-22.481 4.71-4.4.79-8.629 1.444-12.479 1.994-1.925.275-3.746.515-5.465.721-1.719.207-3.3.413-4.778.55a32.846 32.846 0 0 1-3.988.138 22.868 22.868 0 0 1-3.025-.275c-1.65-.275-2.509-.619-2.475-.688.035-.103.894.138 2.544.241 1.616.138 3.987.103 6.875-.241 1.444-.171 3.025-.412 4.744-.653 1.718-.275 3.54-.55 5.431-.825 3.816-.584 8.044-1.306 12.444-2.062 8.8-1.547 16.74-3.163 22.481-4.366 2.853-.619 5.19-1.1 6.806-1.409 1.616-.344 2.544-.481 2.544-.413Zm-1.616 16.225c.035.207-2.922.516-7.493 1.925-2.269.688-4.95 1.65-7.838 2.888-2.887 1.237-6.016 2.715-9.281 4.365-3.266 1.65-6.36 3.266-9.178 4.675-1.41.688-2.785 1.375-4.091 1.925s-2.544 1.032-3.713 1.375c-1.168.344-2.268.55-3.231.654-.24.034-.481.034-.687.068-.241.035-.447.035-.653.035h-.585c-.206 0-.378-.035-.55-.035-1.375-.137-2.062-.412-2.062-.447.034-.103.756.035 2.062.035h.516c.172 0 .378-.035.584-.035.207 0 .413-.034.619-.068.206-.035.447-.069.653-.104.928-.137 1.96-.412 3.06-.79 1.134-.378 2.303-.86 3.575-1.444 1.271-.584 2.578-1.272 3.987-1.994 2.819-1.443 5.878-3.093 9.144-4.743 3.265-1.65 6.428-3.128 9.384-4.332 2.956-1.203 5.672-2.097 8.044-2.681.584-.172 1.134-.275 1.684-.412.516-.103 1.031-.241 1.513-.31.962-.137 1.753-.309 2.44-.378 1.341-.206 2.097-.24 2.097-.172Z"/>
  <path fill="#000" stroke="#000" stroke-miterlimit="10" stroke-width=".344" d="M209.697 244.969c.304 0 .55-3.248.55-7.253 0-4.006-.246-7.254-.55-7.254-.304 0-.55 3.248-.55 7.254 0 4.005.246 7.253.55 7.253Zm12.169-19.56c.172.241-2.028 1.994-5.122 3.541s-5.81 2.234-5.913 1.959c-.103-.309 2.407-1.443 5.397-2.956 3.025-1.512 5.466-2.819 5.638-2.544Zm10.828-8.559c0 .172-.756.241-1.685.928-.481.344-.996.791-1.581 1.375-.584.55-1.237 1.169-1.959 1.788-2.819 2.509-5.26 4.331-5.466 4.125-.206-.241 1.925-2.441 4.744-4.95a41.616 41.616 0 0 1 2.028-1.719c.619-.516 1.272-.997 1.856-1.272.585-.309 1.135-.413 1.513-.413.344 0 .55.069.55.138Zm8.422 1.272c-.069.172-.963-.31-2.475-.138a8.169 8.169 0 0 0-2.475.791c-.894.447-1.753 1.134-2.716 1.891-3.747 3.025-6.978 5.293-7.184 5.053-.207-.241 2.681-2.888 6.462-5.947.963-.756 1.925-1.478 2.956-1.925.997-.481 2.029-.688 2.888-.688s1.512.207 1.959.447c.447.241.619.447.585.516Z"/>
  <path fill="#000" stroke="#000" stroke-miterlimit="10" stroke-width=".344" d="M243.178 219.187c-.069 0-.103-.206-.344-.412-.103-.103-.275-.172-.481-.206-.206-.035-.412 0-.687.103-.275.103-.55.275-.894.515-.344.207-.688.447-1.066.688-.756.481-1.547 1.031-2.406 1.616-3.403 2.303-6.016 4.365-6.256 4.125-.206-.207 2.131-2.716 5.603-5.054a35.59 35.59 0 0 1 2.509-1.546c.378-.207.791-.413 1.135-.619.343-.172.722-.378 1.1-.447.378-.103.79-.103 1.1.034.309.138.515.344.653.55.103.207.137.413.103.516.034.103-.034.137-.069.137Z"/>
  <path fill="#000" stroke="#000" stroke-miterlimit="10" stroke-width=".344" d="M243.728 218.981c.206.207-1.787 2.544-4.675 4.95-2.887 2.407-5.534 3.953-5.706 3.713-.172-.275 2.165-2.2 4.984-4.572 2.853-2.372 5.156-4.331 5.397-4.091Zm2.269 5.707c.069.309-2.819 1.134-6.256 2.337-3.472 1.169-6.257 2.303-6.394 1.994-.138-.275 2.475-1.856 6.015-3.06 3.541-1.203 6.601-1.581 6.635-1.271Zm.069.79c.103.103-.413.894-1.582 1.788-.584.447-1.34.928-2.165 1.375-.86.447-1.788.928-2.75 1.375-3.953 1.856-7.357 2.99-7.46 2.715-.103-.275 3.06-1.856 6.978-3.712 1.96-.928 3.782-1.719 4.985-2.406 1.203-.688 1.89-1.272 1.994-1.135Zm-9.832 12.547c.035.138-1.375.688-3.781.825-1.203.069-2.612.034-4.194-.103-1.547-.138-3.265-.378-5.018-.55-1.753-.206-3.438-.309-4.95-.275-1.513.034-2.888.206-3.988.481-2.234.55-3.437 1.375-3.54 1.238-.035-.069.206-.344.756-.722.55-.413 1.409-.86 2.578-1.272 1.134-.413 2.578-.653 4.159-.756 1.582-.103 3.335-.035 5.122.172 1.788.206 3.472.446 5.019.653 1.547.206 2.922.309 4.056.343 2.303.035 3.747-.206 3.781-.034Zm-3.825-1.888c1.997.611 3.688.871 3.777.581.089-.291-1.458-1.022-3.455-1.633-1.996-.612-3.687-.872-3.776-.581-.089.29 1.457 1.021 3.454 1.633Z"/>
</svg>
